<?xml version="1.0" encoding="utf-8" standalone="no"?>
<!DOCTYPE svg PUBLIC "-//W3C//DTD SVG 1.1//EN"
  "http://www.w3.org/Graphics/SVG/1.1/DTD/svg11.dtd">
<svg xmlns:xlink="http://www.w3.org/1999/xlink" width="460.8pt" height="345.6pt" viewBox="0 0 460.8 345.6" xmlns="http://www.w3.org/2000/svg" version="1.1">
 <metadata>
  <rdf:RDF xmlns:dc="http://purl.org/dc/elements/1.1/" xmlns:cc="http://creativecommons.org/ns#" xmlns:rdf="http://www.w3.org/1999/02/22-rdf-syntax-ns#">
   <cc:Work>
    <dc:type rdf:resource="http://purl.org/dc/dcmitype/StillImage"/>
    <dc:date>2024-09-08T01:38:36.433094</dc:date>
    <dc:format>image/svg+xml</dc:format>
    <dc:creator>
     <cc:Agent>
      <dc:title>Matplotlib v3.7.5, https://matplotlib.org/</dc:title>
     </cc:Agent>
    </dc:creator>
   </cc:Work>
  </rdf:RDF>
 </metadata>
 <defs>
  <style type="text/css">*{stroke-linejoin: round; stroke-linecap: butt}</style>
 </defs>
 <g id="figure_1">
  <g id="patch_1">
   <path d="M 0 345.6 
L 460.8 345.6 
L 460.8 0 
L 0 0 
z
" style="fill: #ffffff"/>
  </g>
  <g id="axes_1">
   <g id="patch_2">
    <path d="M 10.8 334.8 
L 450 334.8 
L 450 26.88 
L 10.8 26.88 
z
" style="fill: #ffffff"/>
   </g>
   <g id="patch_3">
    <path d="M 145.451581 62.193513 
Q 160.447601 180.842513 175.303429 298.382303 
" clip-path="url(#pe8611d7b37)" style="fill: none; stroke: #008000; stroke-linecap: round"/>
    <path d="M 177.527397 292.053483 
L 175.303429 298.382303 
L 171.574754 292.805837 
" clip-path="url(#pe8611d7b37)" style="fill: none; stroke: #008000; stroke-linecap: round"/>
   </g>
   <g id="patch_4">
    <path d="M 144.940625 62.245135 
Q 152.534568 176.389099 160.054292 289.417494 
" clip-path="url(#pe8611d7b37)" style="fill: none; stroke: #008000; stroke-linecap: round"/>
    <path d="M 162.649378 283.231581 
L 160.054292 289.417494 
L 156.662613 283.629877 
" clip-path="url(#pe8611d7b37)" style="fill: none; stroke: #008000; stroke-linecap: round"/>
   </g>
   <g id="patch_5">
    <path d="M 146.162094 62.070113 
Q 170.402663 176.348184 194.411238 289.532555 
" clip-path="url(#pe8611d7b37)" style="fill: none; stroke: #0000ff; stroke-linecap: round"/>
    <path d="M 196.100928 283.04064 
L 194.411238 289.532555 
L 190.231521 284.285654 
" clip-path="url(#pe8611d7b37)" style="fill: none; stroke: #0000ff; stroke-linecap: round"/>
   </g>
   <g id="patch_6">
    <path d="M 146.341719 62.035444 
Q 172.956265 175.633977 199.315776 288.143952 
" clip-path="url(#pe8611d7b37)" style="fill: none; stroke: #008000; stroke-linecap: round"/>
    <path d="M 200.868028 281.617811 
L 199.315776 288.143952 
L 195.026214 282.986466 
" clip-path="url(#pe8611d7b37)" style="fill: none; stroke: #008000; stroke-linecap: round"/>
   </g>
   <g id="patch_7">
    <path d="M 145.372581 62.201239 
Q 157.321857 164.252226 169.141109 265.192765 
" clip-path="url(#pe8611d7b37)" style="fill: none; stroke: #008000; stroke-linecap: round"/>
    <path d="M 171.422972 258.884588 
L 169.141109 265.192765 
L 165.463685 259.582368 
" clip-path="url(#pe8611d7b37)" style="fill: none; stroke: #008000; stroke-linecap: round"/>
   </g>
   <g id="patch_8">
    <path d="M 151.119265 59.022886 
Q 278.12625 160.99586 404.261429 262.268868 
" clip-path="url(#pe8611d7b37)" style="fill: none; stroke: #008000; stroke-linecap: round"/>
    <path d="M 401.461033 256.173149 
L 404.261429 262.268868 
L 397.704617 260.851753 
" clip-path="url(#pe8611d7b37)" style="fill: none; stroke: #008000; stroke-linecap: round"/>
   </g>
   <g id="patch_9">
    <path d="M 57.41887 286.1211 
Q 102.129639 294.753145 145.742646 303.173252 
" clip-path="url(#pe8611d7b37)" style="fill: none; stroke: #008000; stroke-linecap: round"/>
    <path d="M 140.420126 299.090265 
L 145.742646 303.173252 
L 139.282744 304.981476 
" clip-path="url(#pe8611d7b37)" style="fill: none; stroke: #008000; stroke-linecap: round"/>
   </g>
   <g id="patch_10">
    <path d="M 57.567196 284.748807 
Q 96.57511 285.965727 134.465533 287.147785 
" clip-path="url(#pe8611d7b37)" style="fill: none; stroke: #008000; stroke-linecap: round"/>
    <path d="M 128.561996 283.962154 
L 134.465533 287.147785 
L 128.374906 289.959237 
" clip-path="url(#pe8611d7b37)" style="fill: none; stroke: #008000; stroke-linecap: round"/>
   </g>
   <g id="patch_11">
    <path d="M 57.569836 284.5497 
Q 150.628726 285.311756 242.569618 286.064657 
" clip-path="url(#pe8611d7b37)" style="fill: none; stroke: #008000; stroke-linecap: round"/>
    <path d="M 236.594386 283.015625 
L 242.569618 286.064657 
L 236.545253 289.015424 
" clip-path="url(#pe8611d7b37)" style="fill: none; stroke: #008000; stroke-linecap: round"/>
   </g>
   <g id="patch_12">
    <path d="M 57.56858 284.276385 
Q 159.754814 281.886814 260.823319 279.52338 
" clip-path="url(#pe8611d7b37)" style="fill: none; stroke: #008000; stroke-linecap: round"/>
    <path d="M 254.754825 276.664468 
L 260.823319 279.52338 
L 254.895093 282.662829 
" clip-path="url(#pe8611d7b37)" style="fill: none; stroke: #008000; stroke-linecap: round"/>
   </g>
   <g id="patch_13">
    <path d="M 57.573144 284.271862 
Q 160.076346 281.822619 261.461834 279.400083 
" clip-path="url(#pe8611d7b37)" style="fill: none; stroke: #008000; stroke-linecap: round"/>
    <path d="M 255.391883 276.544264 
L 261.461834 279.400083 
L 255.535208 282.542552 
" clip-path="url(#pe8611d7b37)" style="fill: none; stroke: #008000; stroke-linecap: round"/>
   </g>
   <g id="patch_14">
    <path d="M 57.41437 282.813519 
Q 183.43638 258.129518 308.361205 233.660424 
" clip-path="url(#pe8611d7b37)" style="fill: none; stroke: #0000ff; stroke-linecap: round"/>
    <path d="M 301.896438 231.869675 
L 308.361205 233.660424 
L 303.049746 237.757788 
" clip-path="url(#pe8611d7b37)" style="fill: none; stroke: #0000ff; stroke-linecap: round"/>
   </g>
   <g id="text_1">
    <g id="patch_15">
     <path d="M 151.88857 175.639527 
L 153.45225 188.011414 
Q 153.828427 190.987736 156.804749 190.611559 
L 166.406487 189.397998 
Q 169.382809 189.021821 169.006632 186.045499 
L 167.442952 173.673612 
Q 167.066775 170.69729 164.090454 171.073467 
L 154.488716 172.287028 
Q 151.512394 172.663205 151.88857 175.639527 
z
" clip-path="url(#pe8611d7b37)" style="fill: #ffffff; stroke: #ffffff; stroke-linejoin: miter"/>
    </g>
    <g clip-path="url(#pe8611d7b37)">
     <!-- T1 -->
     <g transform="translate(156.928165 175.002573) rotate(-277.203406) scale(0.1 -0.1)">
      <defs>
       <path id="DejaVuSans-54" d="M -19 4666 
L 3928 4666 
L 3928 4134 
L 2272 4134 
L 2272 0 
L 1638 0 
L 1638 4134 
L -19 4134 
L -19 4666 
z
" transform="scale(0.015625)"/>
       <path id="DejaVuSans-31" d="M 794 531 
L 1825 531 
L 1825 4091 
L 703 3866 
L 703 4441 
L 1819 4666 
L 2450 4666 
L 2450 531 
L 3481 531 
L 3481 0 
L 794 0 
L 794 531 
z
" transform="scale(0.015625)"/>
      </defs>
      <use xlink:href="#DejaVuSans-54"/>
      <use xlink:href="#DejaVuSans-31" x="61.083984"/>
     </g>
    </g>
   </g>
   <g id="text_2">
    <g id="patch_16">
     <path d="M 144.29889 170.688074 
L 145.126703 183.13088 
Q 145.325852 186.124263 148.319234 185.925115 
L 157.976012 185.282654 
Q 160.969394 185.083506 160.770246 182.090123 
L 159.942432 169.647317 
Q 159.743284 166.653934 156.749901 166.853083 
L 147.093124 167.495543 
Q 144.099741 167.694692 144.29889 170.688074 
z
" clip-path="url(#pe8611d7b37)" style="fill: #ffffff; stroke: #ffffff; stroke-linejoin: miter"/>
    </g>
    <g clip-path="url(#pe8611d7b37)">
     <!-- T2 -->
     <g transform="translate(149.367372 170.350871) rotate(-273.806251) scale(0.1 -0.1)">
      <defs>
       <path id="DejaVuSans-32" d="M 1228 531 
L 3431 531 
L 3431 0 
L 469 0 
L 469 531 
Q 828 903 1448 1529 
Q 2069 2156 2228 2338 
Q 2531 2678 2651 2914 
Q 2772 3150 2772 3378 
Q 2772 3750 2511 3984 
Q 2250 4219 1831 4219 
Q 1534 4219 1204 4116 
Q 875 4013 500 3803 
L 500 4441 
Q 881 4594 1212 4672 
Q 1544 4750 1819 4750 
Q 2544 4750 2975 4387 
Q 3406 4025 3406 3419 
Q 3406 3131 3298 2873 
Q 3191 2616 2906 2266 
Q 2828 2175 2409 1742 
Q 1991 1309 1228 531 
z
" transform="scale(0.015625)"/>
      </defs>
      <use xlink:href="#DejaVuSans-54"/>
      <use xlink:href="#DejaVuSans-32" x="61.083984"/>
     </g>
    </g>
   </g>
   <g id="text_3">
    <g id="patch_17">
     <path d="M 161.275221 171.096596 
L 164.193222 184.853019 
Q 164.815729 187.787722 167.750433 187.165215 
L 177.217909 185.156982 
Q 180.152612 184.534475 179.530105 181.599772 
L 176.612104 167.843349 
Q 175.989598 164.908645 173.054894 165.531152 
L 163.587418 167.539385 
Q 160.652714 168.161892 161.275221 171.096596 
z
" clip-path="url(#pe8611d7b37)" style="fill: #ffffff; stroke: #ffffff; stroke-linejoin: miter"/>
    </g>
    <g clip-path="url(#pe8611d7b37)">
     <!-- D2 -->
     <g transform="translate(166.244347 170.042549) rotate(-281.976021) scale(0.1 -0.1)">
      <defs>
       <path id="DejaVuSans-44" d="M 1259 4147 
L 1259 519 
L 2022 519 
Q 2988 519 3436 956 
Q 3884 1394 3884 2338 
Q 3884 3275 3436 3711 
Q 2988 4147 2022 4147 
L 1259 4147 
z
M 628 4666 
L 1925 4666 
Q 3281 4666 3915 4102 
Q 4550 3538 4550 2338 
Q 4550 1131 3912 565 
Q 3275 0 1925 0 
L 628 0 
L 628 4666 
z
" transform="scale(0.015625)"/>
      </defs>
      <use xlink:href="#DejaVuSans-44"/>
      <use xlink:href="#DejaVuSans-32" x="77.001953"/>
     </g>
    </g>
   </g>
   <g id="text_4">
    <g id="patch_18">
     <path d="M 163.901578 171.351369 
L 166.746171 183.492909 
Q 167.430499 186.413815 170.351405 185.729488 
L 179.774372 183.521819 
Q 182.695279 182.837491 182.010951 179.916585 
L 179.166358 167.775045 
Q 178.482031 164.854138 175.561124 165.538466 
L 166.138158 167.746135 
Q 163.217251 168.430462 163.901578 171.351369 
z
" clip-path="url(#pe8611d7b37)" style="fill: #ffffff; stroke: #ffffff; stroke-linejoin: miter"/>
    </g>
    <g clip-path="url(#pe8611d7b37)">
     <!-- T1 -->
     <g transform="translate(168.847343 170.192646) rotate(-283.185777) scale(0.1 -0.1)">
      <use xlink:href="#DejaVuSans-54"/>
      <use xlink:href="#DejaVuSans-31" x="61.083984"/>
     </g>
    </g>
   </g>
   <g id="text_5">
    <g id="patch_19">
     <path d="M 148.810858 158.971035 
L 150.261115 171.356731 
Q 150.610005 174.336374 153.589648 173.987484 
L 163.202102 172.86195 
Q 166.181746 172.51306 165.832856 169.533416 
L 164.3826 157.147721 
Q 164.033709 154.168077 161.054066 154.516967 
L 151.441612 155.642501 
Q 148.461968 155.991392 148.810858 158.971035 
z
" clip-path="url(#pe8611d7b37)" style="fill: #ffffff; stroke: #ffffff; stroke-linejoin: miter"/>
    </g>
    <g clip-path="url(#pe8611d7b37)">
     <!-- T2 -->
     <g transform="translate(153.856078 158.380284) rotate(-276.678423) scale(0.1 -0.1)">
      <use xlink:href="#DejaVuSans-54"/>
      <use xlink:href="#DejaVuSans-32" x="61.083984"/>
     </g>
    </g>
   </g>
   <g id="text_6">
    <g id="patch_20">
     <path d="M 268.356482 163.204864 
L 278.080424 171.012146 
Q 280.419725 172.890354 282.297934 170.551052 
L 288.357112 163.004367 
Q 290.23532 160.665065 287.896018 158.786856 
L 278.172076 150.979575 
Q 275.832774 149.101367 273.954566 151.440668 
L 267.895388 158.987354 
Q 266.01718 161.326656 268.356482 163.204864 
z
" clip-path="url(#pe8611d7b37)" style="fill: #ffffff; stroke: #ffffff; stroke-linejoin: miter"/>
    </g>
    <g clip-path="url(#pe8611d7b37)">
     <!-- T2 -->
     <g transform="translate(271.536719 159.24389) rotate(-321.239276) scale(0.1 -0.1)">
      <use xlink:href="#DejaVuSans-54"/>
      <use xlink:href="#DejaVuSans-32" x="61.083984"/>
     </g>
    </g>
   </g>
   <g id="text_7">
    <g id="patch_21">
     <path d="M 94.521535 301.268115 
L 106.765741 303.632032 
Q 109.711347 304.200722 110.280037 301.255117 
L 112.114657 291.752472 
Q 112.683348 288.806866 109.737743 288.238175 
L 97.493536 285.874258 
Q 94.547931 285.305568 93.97924 288.251173 
L 92.14462 297.753819 
Q 91.57593 300.699424 94.521535 301.268115 
z
" clip-path="url(#pe8611d7b37)" style="fill: #ffffff; stroke: #ffffff; stroke-linejoin: miter"/>
    </g>
    <g clip-path="url(#pe8611d7b37)">
     <!-- T2 -->
     <g transform="translate(95.484459 296.28053) rotate(-349.072684) scale(0.1 -0.1)">
      <use xlink:href="#DejaVuSans-54"/>
      <use xlink:href="#DejaVuSans-32" x="61.083984"/>
     </g>
    </g>
   </g>
   <g id="text_8">
    <g id="patch_22">
     <path d="M 90.098551 293.606555 
L 102.5628 293.9954 
Q 105.561341 294.088944 105.654886 291.090403 
L 105.956665 281.416984 
Q 106.05021 278.418443 103.051668 278.324898 
L 90.58742 277.936054 
Q 87.588879 277.842509 87.495334 280.841051 
L 87.193554 290.51447 
Q 87.10001 293.513011 90.098551 293.606555 
z
" clip-path="url(#pe8611d7b37)" style="fill: #ffffff; stroke: #ffffff; stroke-linejoin: miter"/>
    </g>
    <g clip-path="url(#pe8611d7b37)">
     <!-- T2 -->
     <g transform="translate(90.256944 288.529338) rotate(-358.213137) scale(0.1 -0.1)">
      <use xlink:href="#DejaVuSans-54"/>
      <use xlink:href="#DejaVuSans-32" x="61.083984"/>
     </g>
    </g>
   </g>
   <g id="text_9">
    <g id="patch_23">
     <path d="M 144.329587 293.099498 
L 156.799481 293.201614 
Q 159.79938 293.22618 159.823947 290.22628 
L 159.903198 280.54848 
Q 159.927764 277.54858 156.927864 277.524014 
L 144.45797 277.421899 
Q 141.458071 277.397333 141.433505 280.397232 
L 141.354253 290.075033 
Q 141.329687 293.074932 144.329587 293.099498 
z
" clip-path="url(#pe8611d7b37)" style="fill: #ffffff; stroke: #ffffff; stroke-linejoin: miter"/>
    </g>
    <g clip-path="url(#pe8611d7b37)">
     <!-- T1 -->
     <g transform="translate(144.371183 288.019981) rotate(-359.530817) scale(0.1 -0.1)">
      <use xlink:href="#DejaVuSans-54"/>
      <use xlink:href="#DejaVuSans-31" x="61.083984"/>
     </g>
    </g>
   </g>
   <g id="text_10">
    <g id="patch_24">
     <path d="M 153.704624 289.8695 
L 166.171528 289.577968 
Q 169.170708 289.507833 169.100574 286.508653 
L 168.874318 276.833173 
Q 168.804184 273.833993 165.805004 273.904128 
L 153.338099 274.19566 
Q 150.338919 274.265794 150.409054 277.264974 
L 150.63531 286.940454 
Q 150.705444 289.939634 153.704624 289.8695 
z
" clip-path="url(#pe8611d7b37)" style="fill: #ffffff; stroke: #ffffff; stroke-linejoin: miter"/>
    </g>
    <g clip-path="url(#pe8611d7b37)">
     <!-- T1 -->
     <g transform="translate(153.585871 284.7912) rotate(-1.339587) scale(0.1 -0.1)">
      <use xlink:href="#DejaVuSans-54"/>
      <use xlink:href="#DejaVuSans-31" x="61.083984"/>
     </g>
    </g>
   </g>
   <g id="text_11">
    <g id="patch_25">
     <path d="M 154.030225 289.808387 
L 166.496979 289.510503 
Q 169.496123 289.43884 169.424461 286.439696 
L 169.193274 276.764333 
Q 169.121612 273.765189 166.122468 273.836851 
L 153.655714 274.134736 
Q 150.65657 274.206398 150.728232 277.205542 
L 150.959418 286.880906 
Q 151.031081 289.88005 154.030225 289.808387 
z
" clip-path="url(#pe8611d7b37)" style="fill: #ffffff; stroke: #ffffff; stroke-linejoin: miter"/>
    </g>
    <g clip-path="url(#pe8611d7b37)">
     <!-- T2 -->
     <g transform="translate(153.908884 284.730149) rotate(-1.368783) scale(0.1 -0.1)">
      <use xlink:href="#DejaVuSans-54"/>
      <use xlink:href="#DejaVuSans-32" x="61.083984"/>
     </g>
    </g>
   </g>
   <g id="text_12">
    <g id="patch_26">
     <path d="M 178.043056 267.173932 
L 191.843322 264.470867 
Q 194.787379 263.894213 194.210725 260.950156 
L 192.350415 251.452506 
Q 191.773761 248.508449 188.829704 249.085104 
L 175.029438 251.788169 
Q 172.085382 252.364823 172.662036 255.30888 
L 174.522345 264.80653 
Q 175.099 267.750586 178.043056 267.173932 
z
" clip-path="url(#pe8611d7b37)" style="fill: #ffffff; stroke: #ffffff; stroke-linejoin: miter"/>
    </g>
    <g clip-path="url(#pe8611d7b37)">
     <!-- D2 -->
     <g transform="translate(177.066649 262.18897) rotate(-11.082253) scale(0.1 -0.1)">
      <use xlink:href="#DejaVuSans-44"/>
      <use xlink:href="#DejaVuSans-32" x="77.001953"/>
     </g>
    </g>
   </g>
   <g id="matplotlib.axis_1">
    <g id="xtick_1"/>
    <g id="xtick_2"/>
    <g id="xtick_3"/>
    <g id="xtick_4"/>
    <g id="xtick_5"/>
    <g id="xtick_6"/>
    <g id="xtick_7"/>
   </g>
   <g id="matplotlib.axis_2">
    <g id="ytick_1"/>
    <g id="ytick_2"/>
    <g id="ytick_3"/>
    <g id="ytick_4"/>
    <g id="ytick_5"/>
    <g id="ytick_6"/>
   </g>
   <g id="PathCollection_1">
    <defs>
     <path id="m78b912aec3" d="M -15.811388 15.811388 
L 15.811388 15.811388 
L 15.811388 -15.811388 
L -15.811388 -15.811388 
z
" style="stroke: #ff0000; stroke-opacity: 0.5"/>
    </defs>
    <g clip-path="url(#pe8611d7b37)">
     <use xlink:href="#m78b912aec3" x="144.365491" y="53.600331" style="fill: #ff0000; fill-opacity: 0.5; stroke: #ff0000; stroke-opacity: 0.5"/>
     <use xlink:href="#m78b912aec3" x="48.912397" y="284.478805" style="fill: #ff0000; fill-opacity: 0.5; stroke: #ff0000; stroke-opacity: 0.5"/>
    </g>
   </g>
   <g id="PathCollection_2">
    <defs>
     <path id="m3cedf1687e" d="M 0 10 
C 2.652031 10 5.195799 8.946337 7.071068 7.071068 
C 8.946337 5.195799 10 2.652031 10 0 
C 10 -2.652031 8.946337 -5.195799 7.071068 -7.071068 
C 5.195799 -8.946337 2.652031 -10 0 -10 
C -2.652031 -10 -5.195799 -8.946337 -7.071068 -7.071068 
C -8.946337 -5.195799 -10 -2.652031 -10 0 
C -10 2.652031 -8.946337 5.195799 -7.071068 7.071068 
C -5.195799 8.946337 -2.652031 10 0 10 
z
" style="stroke: #0000ff; stroke-opacity: 0.5"/>
    </defs>
    <g clip-path="url(#pe8611d7b37)">
     <use xlink:href="#m3cedf1687e" x="176.529077" y="308.079669" style="fill: #0000ff; fill-opacity: 0.5; stroke: #0000ff; stroke-opacity: 0.5"/>
     <use xlink:href="#m3cedf1687e" x="160.703603" y="299.177237" style="fill: #0000ff; fill-opacity: 0.5; stroke: #0000ff; stroke-opacity: 0.5"/>
     <use xlink:href="#m3cedf1687e" x="196.440763" y="299.100405" style="fill: #0000ff; fill-opacity: 0.5; stroke: #0000ff; stroke-opacity: 0.5"/>
     <use xlink:href="#m3cedf1687e" x="201.546126" y="297.663728" style="fill: #0000ff; fill-opacity: 0.5; stroke: #0000ff; stroke-opacity: 0.5"/>
     <use xlink:href="#m3cedf1687e" x="170.278608" y="274.9074" style="fill: #0000ff; fill-opacity: 0.5; stroke: #0000ff; stroke-opacity: 0.5"/>
     <use xlink:href="#m3cedf1687e" x="411.887603" y="268.391867" style="fill: #0000ff; fill-opacity: 0.5; stroke: #0000ff; stroke-opacity: 0.5"/>
     <use xlink:href="#m3cedf1687e" x="155.342372" y="305.026615" style="fill: #0000ff; fill-opacity: 0.5; stroke: #0000ff; stroke-opacity: 0.5"/>
     <use xlink:href="#m3cedf1687e" x="144.240281" y="287.452726" style="fill: #0000ff; fill-opacity: 0.5; stroke: #0000ff; stroke-opacity: 0.5"/>
     <use xlink:href="#m3cedf1687e" x="252.345154" y="286.144709" style="fill: #0000ff; fill-opacity: 0.5; stroke: #0000ff; stroke-opacity: 0.5"/>
     <use xlink:href="#m3cedf1687e" x="270.597289" y="279.294821" style="fill: #0000ff; fill-opacity: 0.5; stroke: #0000ff; stroke-opacity: 0.5"/>
     <use xlink:href="#m3cedf1687e" x="271.235454" y="279.166549" style="fill: #0000ff; fill-opacity: 0.5; stroke: #0000ff; stroke-opacity: 0.5"/>
     <use xlink:href="#m3cedf1687e" x="317.954078" y="231.781462" style="fill: #0000ff; fill-opacity: 0.5; stroke: #0000ff; stroke-opacity: 0.5"/>
    </g>
   </g>
   <g id="patch_27">
    <path d="M 10.8 334.8 
L 10.8 26.88 
" style="fill: none; stroke: #000000; stroke-width: 0.8; stroke-linejoin: miter; stroke-linecap: square"/>
   </g>
   <g id="patch_28">
    <path d="M 450 334.8 
L 450 26.88 
" style="fill: none; stroke: #000000; stroke-width: 0.8; stroke-linejoin: miter; stroke-linecap: square"/>
   </g>
   <g id="patch_29">
    <path d="M 10.8 334.8 
L 450 334.8 
" style="fill: none; stroke: #000000; stroke-width: 0.8; stroke-linejoin: miter; stroke-linecap: square"/>
   </g>
   <g id="patch_30">
    <path d="M 10.8 26.88 
L 450 26.88 
" style="fill: none; stroke: #000000; stroke-width: 0.8; stroke-linejoin: miter; stroke-linecap: square"/>
   </g>
   <g id="text_13">
    <g clip-path="url(#pe8611d7b37)">
     <!-- W1 -->
     <g transform="translate(135.371741 56.359706) scale(0.1 -0.1)">
      <defs>
       <path id="DejaVuSans-Bold-57" d="M 191 4666 
L 1344 4666 
L 2150 1275 
L 2950 4666 
L 4109 4666 
L 4909 1275 
L 5716 4666 
L 6859 4666 
L 5759 0 
L 4372 0 
L 3525 3547 
L 2688 0 
L 1300 0 
L 191 4666 
z
" transform="scale(0.015625)"/>
       <path id="DejaVuSans-Bold-31" d="M 750 831 
L 1813 831 
L 1813 3847 
L 722 3622 
L 722 4441 
L 1806 4666 
L 2950 4666 
L 2950 831 
L 4013 831 
L 4013 0 
L 750 0 
L 750 831 
z
" transform="scale(0.015625)"/>
      </defs>
      <use xlink:href="#DejaVuSans-Bold-57"/>
      <use xlink:href="#DejaVuSans-Bold-31" x="110.302734"/>
     </g>
    </g>
   </g>
   <g id="text_14">
    <g clip-path="url(#pe8611d7b37)">
     <!-- S2 -->
     <g transform="translate(169.449389 310.839044) scale(0.1 -0.1)">
      <defs>
       <path id="DejaVuSans-Bold-53" d="M 3834 4519 
L 3834 3531 
Q 3450 3703 3084 3790 
Q 2719 3878 2394 3878 
Q 1963 3878 1756 3759 
Q 1550 3641 1550 3391 
Q 1550 3203 1689 3098 
Q 1828 2994 2194 2919 
L 2706 2816 
Q 3484 2659 3812 2340 
Q 4141 2022 4141 1434 
Q 4141 663 3683 286 
Q 3225 -91 2284 -91 
Q 1841 -91 1394 -6 
Q 947 78 500 244 
L 500 1259 
Q 947 1022 1364 901 
Q 1781 781 2169 781 
Q 2563 781 2772 912 
Q 2981 1044 2981 1288 
Q 2981 1506 2839 1625 
Q 2697 1744 2272 1838 
L 1806 1941 
Q 1106 2091 782 2419 
Q 459 2747 459 3303 
Q 459 4000 909 4375 
Q 1359 4750 2203 4750 
Q 2588 4750 2994 4692 
Q 3400 4634 3834 4519 
z
" transform="scale(0.015625)"/>
       <path id="DejaVuSans-Bold-32" d="M 1844 884 
L 3897 884 
L 3897 0 
L 506 0 
L 506 884 
L 2209 2388 
Q 2438 2594 2547 2791 
Q 2656 2988 2656 3200 
Q 2656 3528 2436 3728 
Q 2216 3928 1850 3928 
Q 1569 3928 1234 3808 
Q 900 3688 519 3450 
L 519 4475 
Q 925 4609 1322 4679 
Q 1719 4750 2100 4750 
Q 2938 4750 3402 4381 
Q 3866 4013 3866 3353 
Q 3866 2972 3669 2642 
Q 3472 2313 2841 1759 
L 1844 884 
z
" transform="scale(0.015625)"/>
      </defs>
      <use xlink:href="#DejaVuSans-Bold-53"/>
      <use xlink:href="#DejaVuSans-Bold-32" x="72.021484"/>
     </g>
    </g>
   </g>
   <g id="text_15">
    <g clip-path="url(#pe8611d7b37)">
     <!-- S21 -->
     <g transform="translate(150.145009 301.936612) scale(0.1 -0.1)">
      <use xlink:href="#DejaVuSans-Bold-53"/>
      <use xlink:href="#DejaVuSans-Bold-32" x="72.021484"/>
      <use xlink:href="#DejaVuSans-Bold-31" x="141.601562"/>
     </g>
    </g>
   </g>
   <g id="text_16">
    <g clip-path="url(#pe8611d7b37)">
     <!-- S22 -->
     <g transform="translate(185.882169 301.85978) scale(0.1 -0.1)">
      <use xlink:href="#DejaVuSans-Bold-53"/>
      <use xlink:href="#DejaVuSans-Bold-32" x="72.021484"/>
      <use xlink:href="#DejaVuSans-Bold-32" x="141.601562"/>
     </g>
    </g>
   </g>
   <g id="text_17">
    <g clip-path="url(#pe8611d7b37)">
     <!-- S26 -->
     <g transform="translate(190.987533 300.423103) scale(0.1 -0.1)">
      <defs>
       <path id="DejaVuSans-Bold-36" d="M 2316 2303 
Q 2000 2303 1842 2098 
Q 1684 1894 1684 1484 
Q 1684 1075 1842 870 
Q 2000 666 2316 666 
Q 2634 666 2792 870 
Q 2950 1075 2950 1484 
Q 2950 1894 2792 2098 
Q 2634 2303 2316 2303 
z
M 3803 4544 
L 3803 3681 
Q 3506 3822 3243 3889 
Q 2981 3956 2731 3956 
Q 2194 3956 1894 3657 
Q 1594 3359 1544 2772 
Q 1750 2925 1990 3001 
Q 2231 3078 2516 3078 
Q 3231 3078 3670 2659 
Q 4109 2241 4109 1563 
Q 4109 813 3618 361 
Q 3128 -91 2303 -91 
Q 1394 -91 895 523 
Q 397 1138 397 2266 
Q 397 3422 980 4083 
Q 1563 4744 2578 4744 
Q 2900 4744 3203 4694 
Q 3506 4644 3803 4544 
z
" transform="scale(0.015625)"/>
      </defs>
      <use xlink:href="#DejaVuSans-Bold-53"/>
      <use xlink:href="#DejaVuSans-Bold-32" x="72.021484"/>
      <use xlink:href="#DejaVuSans-Bold-36" x="141.601562"/>
     </g>
    </g>
   </g>
   <g id="text_18">
    <g clip-path="url(#pe8611d7b37)">
     <!-- S58 -->
     <g transform="translate(159.720014 277.666775) scale(0.1 -0.1)">
      <defs>
       <path id="DejaVuSans-Bold-35" d="M 678 4666 
L 3669 4666 
L 3669 3781 
L 1638 3781 
L 1638 3059 
Q 1775 3097 1914 3117 
Q 2053 3138 2203 3138 
Q 3056 3138 3531 2711 
Q 4006 2284 4006 1522 
Q 4006 766 3489 337 
Q 2972 -91 2053 -91 
Q 1656 -91 1267 -14 
Q 878 63 494 219 
L 494 1166 
Q 875 947 1217 837 
Q 1559 728 1863 728 
Q 2300 728 2551 942 
Q 2803 1156 2803 1522 
Q 2803 1891 2551 2103 
Q 2300 2316 1863 2316 
Q 1603 2316 1309 2248 
Q 1016 2181 678 2041 
L 678 4666 
z
" transform="scale(0.015625)"/>
       <path id="DejaVuSans-Bold-38" d="M 2228 2088 
Q 1891 2088 1709 1903 
Q 1528 1719 1528 1375 
Q 1528 1031 1709 848 
Q 1891 666 2228 666 
Q 2563 666 2741 848 
Q 2919 1031 2919 1375 
Q 2919 1722 2741 1905 
Q 2563 2088 2228 2088 
z
M 1350 2484 
Q 925 2613 709 2878 
Q 494 3144 494 3541 
Q 494 4131 934 4440 
Q 1375 4750 2228 4750 
Q 3075 4750 3515 4442 
Q 3956 4134 3956 3541 
Q 3956 3144 3739 2878 
Q 3522 2613 3097 2484 
Q 3572 2353 3814 2058 
Q 4056 1763 4056 1313 
Q 4056 619 3595 264 
Q 3134 -91 2228 -91 
Q 1319 -91 855 264 
Q 391 619 391 1313 
Q 391 1763 633 2058 
Q 875 2353 1350 2484 
z
M 1631 3419 
Q 1631 3141 1786 2991 
Q 1941 2841 2228 2841 
Q 2509 2841 2662 2991 
Q 2816 3141 2816 3419 
Q 2816 3697 2662 3845 
Q 2509 3994 2228 3994 
Q 1941 3994 1786 3844 
Q 1631 3694 1631 3419 
z
" transform="scale(0.015625)"/>
      </defs>
      <use xlink:href="#DejaVuSans-Bold-53"/>
      <use xlink:href="#DejaVuSans-Bold-35" x="72.021484"/>
      <use xlink:href="#DejaVuSans-Bold-38" x="141.601562"/>
     </g>
    </g>
   </g>
   <g id="text_19">
    <g clip-path="url(#pe8611d7b37)">
     <!-- S61 -->
     <g transform="translate(401.32901 271.151242) scale(0.1 -0.1)">
      <use xlink:href="#DejaVuSans-Bold-53"/>
      <use xlink:href="#DejaVuSans-Bold-36" x="72.021484"/>
      <use xlink:href="#DejaVuSans-Bold-31" x="141.601562"/>
     </g>
    </g>
   </g>
   <g id="text_20">
    <g clip-path="url(#pe8611d7b37)">
     <!-- W2 -->
     <g transform="translate(39.918647 287.23818) scale(0.1 -0.1)">
      <use xlink:href="#DejaVuSans-Bold-57"/>
      <use xlink:href="#DejaVuSans-Bold-32" x="110.302734"/>
     </g>
    </g>
   </g>
   <g id="text_21">
    <g clip-path="url(#pe8611d7b37)">
     <!-- S9 -->
     <g transform="translate(148.262685 307.78599) scale(0.1 -0.1)">
      <defs>
       <path id="DejaVuSans-Bold-39" d="M 641 103 
L 641 966 
Q 928 831 1190 764 
Q 1453 697 1709 697 
Q 2247 697 2547 995 
Q 2847 1294 2900 1881 
Q 2688 1725 2447 1647 
Q 2206 1569 1925 1569 
Q 1209 1569 770 1986 
Q 331 2403 331 3084 
Q 331 3838 820 4291 
Q 1309 4744 2131 4744 
Q 3044 4744 3544 4128 
Q 4044 3513 4044 2388 
Q 4044 1231 3459 570 
Q 2875 -91 1856 -91 
Q 1528 -91 1228 -42 
Q 928 6 641 103 
z
M 2125 2350 
Q 2441 2350 2600 2554 
Q 2759 2759 2759 3169 
Q 2759 3575 2600 3781 
Q 2441 3988 2125 3988 
Q 1809 3988 1650 3781 
Q 1491 3575 1491 3169 
Q 1491 2759 1650 2554 
Q 1809 2350 2125 2350 
z
" transform="scale(0.015625)"/>
      </defs>
      <use xlink:href="#DejaVuSans-Bold-53"/>
      <use xlink:href="#DejaVuSans-Bold-39" x="72.021484"/>
     </g>
    </g>
   </g>
   <g id="text_22">
    <g clip-path="url(#pe8611d7b37)">
     <!-- S46 -->
     <g transform="translate(133.681687 290.212101) scale(0.1 -0.1)">
      <defs>
       <path id="DejaVuSans-Bold-34" d="M 2356 3675 
L 1038 1722 
L 2356 1722 
L 2356 3675 
z
M 2156 4666 
L 3494 4666 
L 3494 1722 
L 4159 1722 
L 4159 850 
L 3494 850 
L 3494 0 
L 2356 0 
L 2356 850 
L 288 850 
L 288 1881 
L 2156 4666 
z
" transform="scale(0.015625)"/>
      </defs>
      <use xlink:href="#DejaVuSans-Bold-53"/>
      <use xlink:href="#DejaVuSans-Bold-34" x="72.021484"/>
      <use xlink:href="#DejaVuSans-Bold-36" x="141.601562"/>
     </g>
    </g>
   </g>
   <g id="text_23">
    <g clip-path="url(#pe8611d7b37)">
     <!-- S47 -->
     <g transform="translate(241.78656 288.904084) scale(0.1 -0.1)">
      <defs>
       <path id="DejaVuSans-Bold-37" d="M 428 4666 
L 3944 4666 
L 3944 3988 
L 2125 0 
L 953 0 
L 2675 3781 
L 428 3781 
L 428 4666 
z
" transform="scale(0.015625)"/>
      </defs>
      <use xlink:href="#DejaVuSans-Bold-53"/>
      <use xlink:href="#DejaVuSans-Bold-34" x="72.021484"/>
      <use xlink:href="#DejaVuSans-Bold-37" x="141.601562"/>
     </g>
    </g>
   </g>
   <g id="text_24">
    <g clip-path="url(#pe8611d7b37)">
     <!-- S52 -->
     <g transform="translate(260.038695 282.054196) scale(0.1 -0.1)">
      <use xlink:href="#DejaVuSans-Bold-53"/>
      <use xlink:href="#DejaVuSans-Bold-35" x="72.021484"/>
      <use xlink:href="#DejaVuSans-Bold-32" x="141.601562"/>
     </g>
    </g>
   </g>
   <g id="text_25">
    <g clip-path="url(#pe8611d7b37)">
     <!-- S53 -->
     <g transform="translate(260.67686 281.925924) scale(0.1 -0.1)">
      <defs>
       <path id="DejaVuSans-Bold-33" d="M 2981 2516 
Q 3453 2394 3698 2092 
Q 3944 1791 3944 1325 
Q 3944 631 3412 270 
Q 2881 -91 1863 -91 
Q 1503 -91 1142 -33 
Q 781 25 428 141 
L 428 1069 
Q 766 900 1098 814 
Q 1431 728 1753 728 
Q 2231 728 2486 893 
Q 2741 1059 2741 1369 
Q 2741 1688 2480 1852 
Q 2219 2016 1709 2016 
L 1228 2016 
L 1228 2791 
L 1734 2791 
Q 2188 2791 2409 2933 
Q 2631 3075 2631 3366 
Q 2631 3634 2415 3781 
Q 2200 3928 1806 3928 
Q 1516 3928 1219 3862 
Q 922 3797 628 3669 
L 628 4550 
Q 984 4650 1334 4700 
Q 1684 4750 2022 4750 
Q 2931 4750 3382 4451 
Q 3834 4153 3834 3553 
Q 3834 3144 3618 2883 
Q 3403 2622 2981 2516 
z
" transform="scale(0.015625)"/>
      </defs>
      <use xlink:href="#DejaVuSans-Bold-53"/>
      <use xlink:href="#DejaVuSans-Bold-35" x="72.021484"/>
      <use xlink:href="#DejaVuSans-Bold-33" x="141.601562"/>
     </g>
    </g>
   </g>
   <g id="text_26">
    <g clip-path="url(#pe8611d7b37)">
     <!-- S74 -->
     <g transform="translate(307.395484 234.540837) scale(0.1 -0.1)">
      <use xlink:href="#DejaVuSans-Bold-53"/>
      <use xlink:href="#DejaVuSans-Bold-37" x="72.021484"/>
      <use xlink:href="#DejaVuSans-Bold-34" x="141.601562"/>
     </g>
    </g>
   </g>
   <g id="text_27">
    <!-- Optimized Humanitarian Relief Distribution Network -->
    <g transform="translate(74.329688 20.88) scale(0.12 -0.12)">
     <defs>
      <path id="DejaVuSans-4f" d="M 2522 4238 
Q 1834 4238 1429 3725 
Q 1025 3213 1025 2328 
Q 1025 1447 1429 934 
Q 1834 422 2522 422 
Q 3209 422 3611 934 
Q 4013 1447 4013 2328 
Q 4013 3213 3611 3725 
Q 3209 4238 2522 4238 
z
M 2522 4750 
Q 3503 4750 4090 4092 
Q 4678 3434 4678 2328 
Q 4678 1225 4090 567 
Q 3503 -91 2522 -91 
Q 1538 -91 948 565 
Q 359 1222 359 2328 
Q 359 3434 948 4092 
Q 1538 4750 2522 4750 
z
" transform="scale(0.015625)"/>
      <path id="DejaVuSans-70" d="M 1159 525 
L 1159 -1331 
L 581 -1331 
L 581 3500 
L 1159 3500 
L 1159 2969 
Q 1341 3281 1617 3432 
Q 1894 3584 2278 3584 
Q 2916 3584 3314 3078 
Q 3713 2572 3713 1747 
Q 3713 922 3314 415 
Q 2916 -91 2278 -91 
Q 1894 -91 1617 61 
Q 1341 213 1159 525 
z
M 3116 1747 
Q 3116 2381 2855 2742 
Q 2594 3103 2138 3103 
Q 1681 3103 1420 2742 
Q 1159 2381 1159 1747 
Q 1159 1113 1420 752 
Q 1681 391 2138 391 
Q 2594 391 2855 752 
Q 3116 1113 3116 1747 
z
" transform="scale(0.015625)"/>
      <path id="DejaVuSans-74" d="M 1172 4494 
L 1172 3500 
L 2356 3500 
L 2356 3053 
L 1172 3053 
L 1172 1153 
Q 1172 725 1289 603 
Q 1406 481 1766 481 
L 2356 481 
L 2356 0 
L 1766 0 
Q 1100 0 847 248 
Q 594 497 594 1153 
L 594 3053 
L 172 3053 
L 172 3500 
L 594 3500 
L 594 4494 
L 1172 4494 
z
" transform="scale(0.015625)"/>
      <path id="DejaVuSans-69" d="M 603 3500 
L 1178 3500 
L 1178 0 
L 603 0 
L 603 3500 
z
M 603 4863 
L 1178 4863 
L 1178 4134 
L 603 4134 
L 603 4863 
z
" transform="scale(0.015625)"/>
      <path id="DejaVuSans-6d" d="M 3328 2828 
Q 3544 3216 3844 3400 
Q 4144 3584 4550 3584 
Q 5097 3584 5394 3201 
Q 5691 2819 5691 2113 
L 5691 0 
L 5113 0 
L 5113 2094 
Q 5113 2597 4934 2840 
Q 4756 3084 4391 3084 
Q 3944 3084 3684 2787 
Q 3425 2491 3425 1978 
L 3425 0 
L 2847 0 
L 2847 2094 
Q 2847 2600 2669 2842 
Q 2491 3084 2119 3084 
Q 1678 3084 1418 2786 
Q 1159 2488 1159 1978 
L 1159 0 
L 581 0 
L 581 3500 
L 1159 3500 
L 1159 2956 
Q 1356 3278 1631 3431 
Q 1906 3584 2284 3584 
Q 2666 3584 2933 3390 
Q 3200 3197 3328 2828 
z
" transform="scale(0.015625)"/>
      <path id="DejaVuSans-7a" d="M 353 3500 
L 3084 3500 
L 3084 2975 
L 922 459 
L 3084 459 
L 3084 0 
L 275 0 
L 275 525 
L 2438 3041 
L 353 3041 
L 353 3500 
z
" transform="scale(0.015625)"/>
      <path id="DejaVuSans-65" d="M 3597 1894 
L 3597 1613 
L 953 1613 
Q 991 1019 1311 708 
Q 1631 397 2203 397 
Q 2534 397 2845 478 
Q 3156 559 3463 722 
L 3463 178 
Q 3153 47 2828 -22 
Q 2503 -91 2169 -91 
Q 1331 -91 842 396 
Q 353 884 353 1716 
Q 353 2575 817 3079 
Q 1281 3584 2069 3584 
Q 2775 3584 3186 3129 
Q 3597 2675 3597 1894 
z
M 3022 2063 
Q 3016 2534 2758 2815 
Q 2500 3097 2075 3097 
Q 1594 3097 1305 2825 
Q 1016 2553 972 2059 
L 3022 2063 
z
" transform="scale(0.015625)"/>
      <path id="DejaVuSans-64" d="M 2906 2969 
L 2906 4863 
L 3481 4863 
L 3481 0 
L 2906 0 
L 2906 525 
Q 2725 213 2448 61 
Q 2172 -91 1784 -91 
Q 1150 -91 751 415 
Q 353 922 353 1747 
Q 353 2572 751 3078 
Q 1150 3584 1784 3584 
Q 2172 3584 2448 3432 
Q 2725 3281 2906 2969 
z
M 947 1747 
Q 947 1113 1208 752 
Q 1469 391 1925 391 
Q 2381 391 2643 752 
Q 2906 1113 2906 1747 
Q 2906 2381 2643 2742 
Q 2381 3103 1925 3103 
Q 1469 3103 1208 2742 
Q 947 2381 947 1747 
z
" transform="scale(0.015625)"/>
      <path id="DejaVuSans-20" transform="scale(0.015625)"/>
      <path id="DejaVuSans-48" d="M 628 4666 
L 1259 4666 
L 1259 2753 
L 3553 2753 
L 3553 4666 
L 4184 4666 
L 4184 0 
L 3553 0 
L 3553 2222 
L 1259 2222 
L 1259 0 
L 628 0 
L 628 4666 
z
" transform="scale(0.015625)"/>
      <path id="DejaVuSans-75" d="M 544 1381 
L 544 3500 
L 1119 3500 
L 1119 1403 
Q 1119 906 1312 657 
Q 1506 409 1894 409 
Q 2359 409 2629 706 
Q 2900 1003 2900 1516 
L 2900 3500 
L 3475 3500 
L 3475 0 
L 2900 0 
L 2900 538 
Q 2691 219 2414 64 
Q 2138 -91 1772 -91 
Q 1169 -91 856 284 
Q 544 659 544 1381 
z
M 1991 3584 
L 1991 3584 
z
" transform="scale(0.015625)"/>
      <path id="DejaVuSans-61" d="M 2194 1759 
Q 1497 1759 1228 1600 
Q 959 1441 959 1056 
Q 959 750 1161 570 
Q 1363 391 1709 391 
Q 2188 391 2477 730 
Q 2766 1069 2766 1631 
L 2766 1759 
L 2194 1759 
z
M 3341 1997 
L 3341 0 
L 2766 0 
L 2766 531 
Q 2569 213 2275 61 
Q 1981 -91 1556 -91 
Q 1019 -91 701 211 
Q 384 513 384 1019 
Q 384 1609 779 1909 
Q 1175 2209 1959 2209 
L 2766 2209 
L 2766 2266 
Q 2766 2663 2505 2880 
Q 2244 3097 1772 3097 
Q 1472 3097 1187 3025 
Q 903 2953 641 2809 
L 641 3341 
Q 956 3463 1253 3523 
Q 1550 3584 1831 3584 
Q 2591 3584 2966 3190 
Q 3341 2797 3341 1997 
z
" transform="scale(0.015625)"/>
      <path id="DejaVuSans-6e" d="M 3513 2113 
L 3513 0 
L 2938 0 
L 2938 2094 
Q 2938 2591 2744 2837 
Q 2550 3084 2163 3084 
Q 1697 3084 1428 2787 
Q 1159 2491 1159 1978 
L 1159 0 
L 581 0 
L 581 3500 
L 1159 3500 
L 1159 2956 
Q 1366 3272 1645 3428 
Q 1925 3584 2291 3584 
Q 2894 3584 3203 3211 
Q 3513 2838 3513 2113 
z
" transform="scale(0.015625)"/>
      <path id="DejaVuSans-72" d="M 2631 2963 
Q 2534 3019 2420 3045 
Q 2306 3072 2169 3072 
Q 1681 3072 1420 2755 
Q 1159 2438 1159 1844 
L 1159 0 
L 581 0 
L 581 3500 
L 1159 3500 
L 1159 2956 
Q 1341 3275 1631 3429 
Q 1922 3584 2338 3584 
Q 2397 3584 2469 3576 
Q 2541 3569 2628 3553 
L 2631 2963 
z
" transform="scale(0.015625)"/>
      <path id="DejaVuSans-52" d="M 2841 2188 
Q 3044 2119 3236 1894 
Q 3428 1669 3622 1275 
L 4263 0 
L 3584 0 
L 2988 1197 
Q 2756 1666 2539 1819 
Q 2322 1972 1947 1972 
L 1259 1972 
L 1259 0 
L 628 0 
L 628 4666 
L 2053 4666 
Q 2853 4666 3247 4331 
Q 3641 3997 3641 3322 
Q 3641 2881 3436 2590 
Q 3231 2300 2841 2188 
z
M 1259 4147 
L 1259 2491 
L 2053 2491 
Q 2509 2491 2742 2702 
Q 2975 2913 2975 3322 
Q 2975 3731 2742 3939 
Q 2509 4147 2053 4147 
L 1259 4147 
z
" transform="scale(0.015625)"/>
      <path id="DejaVuSans-6c" d="M 603 4863 
L 1178 4863 
L 1178 0 
L 603 0 
L 603 4863 
z
" transform="scale(0.015625)"/>
      <path id="DejaVuSans-66" d="M 2375 4863 
L 2375 4384 
L 1825 4384 
Q 1516 4384 1395 4259 
Q 1275 4134 1275 3809 
L 1275 3500 
L 2222 3500 
L 2222 3053 
L 1275 3053 
L 1275 0 
L 697 0 
L 697 3053 
L 147 3053 
L 147 3500 
L 697 3500 
L 697 3744 
Q 697 4328 969 4595 
Q 1241 4863 1831 4863 
L 2375 4863 
z
" transform="scale(0.015625)"/>
      <path id="DejaVuSans-73" d="M 2834 3397 
L 2834 2853 
Q 2591 2978 2328 3040 
Q 2066 3103 1784 3103 
Q 1356 3103 1142 2972 
Q 928 2841 928 2578 
Q 928 2378 1081 2264 
Q 1234 2150 1697 2047 
L 1894 2003 
Q 2506 1872 2764 1633 
Q 3022 1394 3022 966 
Q 3022 478 2636 193 
Q 2250 -91 1575 -91 
Q 1294 -91 989 -36 
Q 684 19 347 128 
L 347 722 
Q 666 556 975 473 
Q 1284 391 1588 391 
Q 1994 391 2212 530 
Q 2431 669 2431 922 
Q 2431 1156 2273 1281 
Q 2116 1406 1581 1522 
L 1381 1569 
Q 847 1681 609 1914 
Q 372 2147 372 2553 
Q 372 3047 722 3315 
Q 1072 3584 1716 3584 
Q 2034 3584 2315 3537 
Q 2597 3491 2834 3397 
z
" transform="scale(0.015625)"/>
      <path id="DejaVuSans-62" d="M 3116 1747 
Q 3116 2381 2855 2742 
Q 2594 3103 2138 3103 
Q 1681 3103 1420 2742 
Q 1159 2381 1159 1747 
Q 1159 1113 1420 752 
Q 1681 391 2138 391 
Q 2594 391 2855 752 
Q 3116 1113 3116 1747 
z
M 1159 2969 
Q 1341 3281 1617 3432 
Q 1894 3584 2278 3584 
Q 2916 3584 3314 3078 
Q 3713 2572 3713 1747 
Q 3713 922 3314 415 
Q 2916 -91 2278 -91 
Q 1894 -91 1617 61 
Q 1341 213 1159 525 
L 1159 0 
L 581 0 
L 581 4863 
L 1159 4863 
L 1159 2969 
z
" transform="scale(0.015625)"/>
      <path id="DejaVuSans-6f" d="M 1959 3097 
Q 1497 3097 1228 2736 
Q 959 2375 959 1747 
Q 959 1119 1226 758 
Q 1494 397 1959 397 
Q 2419 397 2687 759 
Q 2956 1122 2956 1747 
Q 2956 2369 2687 2733 
Q 2419 3097 1959 3097 
z
M 1959 3584 
Q 2709 3584 3137 3096 
Q 3566 2609 3566 1747 
Q 3566 888 3137 398 
Q 2709 -91 1959 -91 
Q 1206 -91 779 398 
Q 353 888 353 1747 
Q 353 2609 779 3096 
Q 1206 3584 1959 3584 
z
" transform="scale(0.015625)"/>
      <path id="DejaVuSans-4e" d="M 628 4666 
L 1478 4666 
L 3547 763 
L 3547 4666 
L 4159 4666 
L 4159 0 
L 3309 0 
L 1241 3903 
L 1241 0 
L 628 0 
L 628 4666 
z
" transform="scale(0.015625)"/>
      <path id="DejaVuSans-77" d="M 269 3500 
L 844 3500 
L 1563 769 
L 2278 3500 
L 2956 3500 
L 3675 769 
L 4391 3500 
L 4966 3500 
L 4050 0 
L 3372 0 
L 2619 2869 
L 1863 0 
L 1184 0 
L 269 3500 
z
" transform="scale(0.015625)"/>
      <path id="DejaVuSans-6b" d="M 581 4863 
L 1159 4863 
L 1159 1991 
L 2875 3500 
L 3609 3500 
L 1753 1863 
L 3688 0 
L 2938 0 
L 1159 1709 
L 1159 0 
L 581 0 
L 581 4863 
z
" transform="scale(0.015625)"/>
     </defs>
     <use xlink:href="#DejaVuSans-4f"/>
     <use xlink:href="#DejaVuSans-70" x="78.710938"/>
     <use xlink:href="#DejaVuSans-74" x="142.1875"/>
     <use xlink:href="#DejaVuSans-69" x="181.396484"/>
     <use xlink:href="#DejaVuSans-6d" x="209.179688"/>
     <use xlink:href="#DejaVuSans-69" x="306.591797"/>
     <use xlink:href="#DejaVuSans-7a" x="334.375"/>
     <use xlink:href="#DejaVuSans-65" x="386.865234"/>
     <use xlink:href="#DejaVuSans-64" x="448.388672"/>
     <use xlink:href="#DejaVuSans-20" x="511.865234"/>
     <use xlink:href="#DejaVuSans-48" x="543.652344"/>
     <use xlink:href="#DejaVuSans-75" x="618.847656"/>
     <use xlink:href="#DejaVuSans-6d" x="682.226562"/>
     <use xlink:href="#DejaVuSans-61" x="779.638672"/>
     <use xlink:href="#DejaVuSans-6e" x="840.917969"/>
     <use xlink:href="#DejaVuSans-69" x="904.296875"/>
     <use xlink:href="#DejaVuSans-74" x="932.080078"/>
     <use xlink:href="#DejaVuSans-61" x="971.289062"/>
     <use xlink:href="#DejaVuSans-72" x="1032.568359"/>
     <use xlink:href="#DejaVuSans-69" x="1073.681641"/>
     <use xlink:href="#DejaVuSans-61" x="1101.464844"/>
     <use xlink:href="#DejaVuSans-6e" x="1162.744141"/>
     <use xlink:href="#DejaVuSans-20" x="1226.123047"/>
     <use xlink:href="#DejaVuSans-52" x="1257.910156"/>
     <use xlink:href="#DejaVuSans-65" x="1322.892578"/>
     <use xlink:href="#DejaVuSans-6c" x="1384.416016"/>
     <use xlink:href="#DejaVuSans-69" x="1412.199219"/>
     <use xlink:href="#DejaVuSans-65" x="1439.982422"/>
     <use xlink:href="#DejaVuSans-66" x="1501.505859"/>
     <use xlink:href="#DejaVuSans-20" x="1536.710938"/>
     <use xlink:href="#DejaVuSans-44" x="1568.498047"/>
     <use xlink:href="#DejaVuSans-69" x="1645.5"/>
     <use xlink:href="#DejaVuSans-73" x="1673.283203"/>
     <use xlink:href="#DejaVuSans-74" x="1725.382812"/>
     <use xlink:href="#DejaVuSans-72" x="1764.591797"/>
     <use xlink:href="#DejaVuSans-69" x="1805.705078"/>
     <use xlink:href="#DejaVuSans-62" x="1833.488281"/>
     <use xlink:href="#DejaVuSans-75" x="1896.964844"/>
     <use xlink:href="#DejaVuSans-74" x="1960.34375"/>
     <use xlink:href="#DejaVuSans-69" x="1999.552734"/>
     <use xlink:href="#DejaVuSans-6f" x="2027.335938"/>
     <use xlink:href="#DejaVuSans-6e" x="2088.517578"/>
     <use xlink:href="#DejaVuSans-20" x="2151.896484"/>
     <use xlink:href="#DejaVuSans-4e" x="2183.683594"/>
     <use xlink:href="#DejaVuSans-65" x="2258.488281"/>
     <use xlink:href="#DejaVuSans-74" x="2320.011719"/>
     <use xlink:href="#DejaVuSans-77" x="2359.220703"/>
     <use xlink:href="#DejaVuSans-6f" x="2441.007812"/>
     <use xlink:href="#DejaVuSans-72" x="2502.189453"/>
     <use xlink:href="#DejaVuSans-6b" x="2543.302734"/>
    </g>
   </g>
   <g id="legend_1">
    <g id="patch_31">
     <path d="M 350.217187 64.23625 
L 443 64.23625 
Q 445 64.23625 445 62.23625 
L 445 33.88 
Q 445 31.88 443 31.88 
L 350.217187 31.88 
Q 348.217187 31.88 348.217187 33.88 
L 348.217187 62.23625 
Q 348.217187 64.23625 350.217187 64.23625 
z
" style="fill: #ffffff; opacity: 0.8; stroke: #cccccc; stroke-linejoin: miter"/>
    </g>
    <g id="PathCollection_3">
     <g>
      <use xlink:href="#m78b912aec3" x="362.217187" y="40.853437" style="fill: #ff0000; fill-opacity: 0.5; stroke: #ff0000; stroke-opacity: 0.5"/>
     </g>
    </g>
    <g id="text_28">
     <!-- Warehouses -->
     <g transform="translate(380.217187 43.478437) scale(0.1 -0.1)">
      <defs>
       <path id="DejaVuSans-57" d="M 213 4666 
L 850 4666 
L 1831 722 
L 2809 4666 
L 3519 4666 
L 4500 722 
L 5478 4666 
L 6119 4666 
L 4947 0 
L 4153 0 
L 3169 4050 
L 2175 0 
L 1381 0 
L 213 4666 
z
" transform="scale(0.015625)"/>
       <path id="DejaVuSans-68" d="M 3513 2113 
L 3513 0 
L 2938 0 
L 2938 2094 
Q 2938 2591 2744 2837 
Q 2550 3084 2163 3084 
Q 1697 3084 1428 2787 
Q 1159 2491 1159 1978 
L 1159 0 
L 581 0 
L 581 4863 
L 1159 4863 
L 1159 2956 
Q 1366 3272 1645 3428 
Q 1925 3584 2291 3584 
Q 2894 3584 3203 3211 
Q 3513 2838 3513 2113 
z
" transform="scale(0.015625)"/>
      </defs>
      <use xlink:href="#DejaVuSans-57"/>
      <use xlink:href="#DejaVuSans-61" x="92.501953"/>
      <use xlink:href="#DejaVuSans-72" x="153.78125"/>
      <use xlink:href="#DejaVuSans-65" x="192.644531"/>
      <use xlink:href="#DejaVuSans-68" x="254.167969"/>
      <use xlink:href="#DejaVuSans-6f" x="317.546875"/>
      <use xlink:href="#DejaVuSans-75" x="378.728516"/>
      <use xlink:href="#DejaVuSans-73" x="442.107422"/>
      <use xlink:href="#DejaVuSans-65" x="494.207031"/>
      <use xlink:href="#DejaVuSans-73" x="555.730469"/>
     </g>
    </g>
    <g id="PathCollection_4">
     <g>
      <use xlink:href="#m3cedf1687e" x="362.217187" y="55.531563" style="fill: #0000ff; fill-opacity: 0.5; stroke: #0000ff; stroke-opacity: 0.5"/>
     </g>
    </g>
    <g id="text_29">
     <!-- Shelters -->
     <g transform="translate(380.217187 58.156563) scale(0.1 -0.1)">
      <defs>
       <path id="DejaVuSans-53" d="M 3425 4513 
L 3425 3897 
Q 3066 4069 2747 4153 
Q 2428 4238 2131 4238 
Q 1616 4238 1336 4038 
Q 1056 3838 1056 3469 
Q 1056 3159 1242 3001 
Q 1428 2844 1947 2747 
L 2328 2669 
Q 3034 2534 3370 2195 
Q 3706 1856 3706 1288 
Q 3706 609 3251 259 
Q 2797 -91 1919 -91 
Q 1588 -91 1214 -16 
Q 841 59 441 206 
L 441 856 
Q 825 641 1194 531 
Q 1563 422 1919 422 
Q 2459 422 2753 634 
Q 3047 847 3047 1241 
Q 3047 1584 2836 1778 
Q 2625 1972 2144 2069 
L 1759 2144 
Q 1053 2284 737 2584 
Q 422 2884 422 3419 
Q 422 4038 858 4394 
Q 1294 4750 2059 4750 
Q 2388 4750 2728 4690 
Q 3069 4631 3425 4513 
z
" transform="scale(0.015625)"/>
      </defs>
      <use xlink:href="#DejaVuSans-53"/>
      <use xlink:href="#DejaVuSans-68" x="63.476562"/>
      <use xlink:href="#DejaVuSans-65" x="126.855469"/>
      <use xlink:href="#DejaVuSans-6c" x="188.378906"/>
      <use xlink:href="#DejaVuSans-74" x="216.162109"/>
      <use xlink:href="#DejaVuSans-65" x="255.371094"/>
      <use xlink:href="#DejaVuSans-72" x="316.894531"/>
      <use xlink:href="#DejaVuSans-73" x="358.007812"/>
     </g>
    </g>
   </g>
  </g>
 </g>
 <defs>
  <clipPath id="pe8611d7b37">
   <rect x="10.8" y="26.88" width="439.2" height="307.92"/>
  </clipPath>
 </defs>
</svg>
