<?xml version="1.0" encoding="utf-8" standalone="no"?>
<!DOCTYPE svg PUBLIC "-//W3C//DTD SVG 1.1//EN"
  "http://www.w3.org/Graphics/SVG/1.1/DTD/svg11.dtd">
<svg xmlns:xlink="http://www.w3.org/1999/xlink" width="576pt" height="576pt" viewBox="0 0 576 576" xmlns="http://www.w3.org/2000/svg" version="1.1">
 <metadata>
  <rdf:RDF xmlns:dc="http://purl.org/dc/elements/1.1/" xmlns:cc="http://creativecommons.org/ns#" xmlns:rdf="http://www.w3.org/1999/02/22-rdf-syntax-ns#">
   <cc:Work>
    <dc:type rdf:resource="http://purl.org/dc/dcmitype/StillImage"/>
    <dc:date>2024-09-01T00:01:31.488083</dc:date>
    <dc:format>image/svg+xml</dc:format>
    <dc:creator>
     <cc:Agent>
      <dc:title>Matplotlib v3.7.5, https://matplotlib.org/</dc:title>
     </cc:Agent>
    </dc:creator>
   </cc:Work>
  </rdf:RDF>
 </metadata>
 <defs>
  <style type="text/css">*{stroke-linejoin: round; stroke-linecap: butt}</style>
 </defs>
 <g id="figure_1">
  <g id="patch_1">
   <path d="M 0 576 
L 576 576 
L 576 0 
L 0 0 
z
" style="fill: #ffffff"/>
  </g>
  <g id="axes_1">
   <g id="patch_2">
    <path d="M 167.718898 512.64 
L 422.681102 512.64 
L 422.681102 69.12 
L 167.718898 69.12 
z
" style="fill: #ffffff"/>
   </g>
   <g id="PatchCollection_1">
    <path d="M 238.372055 446.571814 
L 236.292577 461.83738 
L 226.431583 453.565968 
L 228.228759 443.306721 
L 238.372055 446.571814 
" clip-path="url(#pa33548b56b)" style="fill: #ffffff; stroke: #000000"/>
    <path d="M 320.093128 471.759329 
L 300.843722 454.14602 
L 308.304567 438.668985 
L 323.47715 438.434862 
L 332.896932 423.035328 
L 330.070564 437.687293 
L 318.940275 452.869649 
L 317.267239 464.182245 
L 320.093128 471.759329 
" clip-path="url(#pa33548b56b)" style="fill: #ffffff; stroke: #000000"/>
    <path d="M 239.009278 444.161553 
L 234.244092 439.317334 
L 234.221011 431.627941 
L 223.978581 426.073441 
L 236.839528 423.039002 
L 229.952576 426.162388 
L 231.549343 430.064262 
L 239.669007 428.166661 
L 242.251997 431.201606 
L 239.009278 444.161553 
" clip-path="url(#pa33548b56b)" style="fill: #ffffff; stroke: #000000"/>
    <path d="M 411.091911 333.588507 
L 404.609725 341.655576 
L 388.866851 343.641936 
L 378.939107 364.028664 
L 378.731674 373.439071 
L 366.864762 378.162377 
L 364.524514 382.574206 
L 352.540918 380.762518 
L 333.364595 382.644273 
L 329.800361 390.529357 
L 330.694358 400.728402 
L 338.903522 404.814433 
L 332.74813 418.02305 
L 326.352779 425.213589 
L 322.565706 437.111809 
L 316.22977 437.268316 
L 311.029899 429.552094 
L 303.435244 433.310673 
L 303.086868 441.301055 
L 295.845989 445.118438 
L 290.558312 453.502501 
L 302.132157 461.550017 
L 302.006527 471.842192 
L 307.574298 475.071855 
L 307.510538 487.390452 
L 303.776503 492.48 
L 291.866915 486.361279 
L 283.007365 474.890426 
L 270.515772 471.139053 
L 267.565283 461.636167 
L 255.649369 463.717496 
L 247.817093 468.298207 
L 240.946172 464.589239 
L 238.912906 454.879407 
L 241.390023 445.507195 
L 241.814109 443.716702 
L 244.041168 428.754045 
L 242.362434 425.684187 
L 248.086069 385.355709 
L 243.898311 376.302502 
L 216.389381 388.137973 
L 195.030339 389.863808 
L 191.859553 397.601059 
L 179.308089 382.282482 
L 188.514496 375.612428 
L 187.501867 369.394966 
L 190.468335 349.581185 
L 185.682399 334.470599 
L 188.309392 312.307334 
L 187.773061 297.756013 
L 191.840053 290.223236 
L 185.303751 274.243024 
L 187.649881 265.481256 
L 203.34295 264.981021 
L 217.935741 270.566376 
L 238.139519 256.55932 
L 264.815687 255.766998 
L 267.057774 254.191007 
L 283.817401 264.194015 
L 291.22078 262.033568 
L 298.40755 244.856887 
L 290.441996 240.64612 
L 286.952614 233.430819 
L 289.183945 220.227137 
L 279.238983 190.51052 
L 276.090236 187.821874 
L 276.604039 160.565812 
L 278.537533 143.125902 
L 277.25367 133.299144 
L 287.401251 132.105942 
L 282.147419 118.754257 
L 292.913144 117.96978 
L 294.713393 111.815401 
L 293.026874 89.28 
L 300.564043 98.395136 
L 297.670152 105.889117 
L 325.089153 110.470519 
L 327.477726 119.212275 
L 336.20168 133.228069 
L 324.971097 136.373207 
L 327.989372 144.172249 
L 339.783314 138.794389 
L 346.130641 147.313834 
L 346.485 163.349093 
L 359.331805 160.376967 
L 355.83311 175.992491 
L 350.71401 186.701448 
L 360.18561 199.627289 
L 359.288836 207.419296 
L 367.095725 213.485472 
L 365.028151 227.499428 
L 370.388108 235.181777 
L 381.909638 258.707501 
L 378.515796 277.83412 
L 392.474122 277.749958 
L 384.081599 292.40724 
L 390.961078 292.378782 
L 386.966442 307.45483 
L 397.15558 309.679616 
L 397.319858 323.531011 
L 411.091911 333.588507 
" clip-path="url(#pa33548b56b)" style="fill: #ffffff; stroke: #000000"/>
   </g>
   <g id="PathCollection_1">
    <path d="M 259.630113 462.258374 
C 260.062341 462.258374 260.476925 462.086647 260.782556 461.781016 
C 261.088188 461.475385 261.259914 461.060801 261.259914 460.628573 
C 261.259914 460.196345 261.088188 459.781761 260.782556 459.47613 
C 260.476925 459.170498 260.062341 458.998772 259.630113 458.998772 
C 259.197885 458.998772 258.783302 459.170498 258.47767 459.47613 
C 258.172039 459.781761 258.000313 460.196345 258.000313 460.628573 
C 258.000313 461.060801 258.172039 461.475385 258.47767 461.781016 
C 258.783302 462.086647 259.197885 462.258374 259.630113 462.258374 
z
" clip-path="url(#pa33548b56b)" style="fill: #ff0000; fill-opacity: 0.5; stroke: #ff0000; stroke-opacity: 0.5"/>
    <path d="M 277.349563 456.286325 
C 277.81838 456.286325 278.268059 456.100061 278.599563 455.768558 
C 278.931067 455.437054 279.11733 454.987375 279.11733 454.518558 
C 279.11733 454.04974 278.931067 453.600061 278.599563 453.268558 
C 278.268059 452.937054 277.81838 452.750791 277.349563 452.750791 
C 276.880745 452.750791 276.431067 452.937054 276.099563 453.268558 
C 275.768059 453.600061 275.581796 454.04974 275.581796 454.518558 
C 275.581796 454.987375 275.768059 455.437054 276.099563 455.768558 
C 276.431067 456.100061 276.880745 456.286325 277.349563 456.286325 
z
" clip-path="url(#pa33548b56b)" style="fill: #ff0000; fill-opacity: 0.5; stroke: #ff0000; stroke-opacity: 0.5"/>
    <path d="M 236.777955 455.4613 
C 237.291519 455.4613 237.784118 455.257259 238.147262 454.894114 
C 238.510406 454.53097 238.714447 454.038371 238.714447 453.524808 
C 238.714447 453.011244 238.510406 452.518646 238.147262 452.155501 
C 237.784118 451.792357 237.291519 451.588316 236.777955 451.588316 
C 236.264392 451.588316 235.771793 451.792357 235.408649 452.155501 
C 235.045505 452.518646 234.841464 453.011244 234.841464 453.524808 
C 234.841464 454.038371 235.045505 454.53097 235.408649 454.894114 
C 235.771793 455.257259 236.264392 455.4613 236.777955 455.4613 
z
" clip-path="url(#pa33548b56b)" style="fill: #ff0000; fill-opacity: 0.5; stroke: #ff0000; stroke-opacity: 0.5"/>
    <path d="M 274.326031 454.790284 
C 274.782978 454.790284 275.22127 454.608737 275.54438 454.285627 
C 275.86749 453.962517 276.049037 453.524224 276.049037 453.067278 
C 276.049037 452.610331 275.86749 452.172039 275.54438 451.848929 
C 275.22127 451.525819 274.782978 451.344272 274.326031 451.344272 
C 273.869085 451.344272 273.430792 451.525819 273.107682 451.848929 
C 272.784572 452.172039 272.603025 452.610331 272.603025 453.067278 
C 272.603025 453.524224 272.784572 453.962517 273.107682 454.285627 
C 273.430792 454.608737 273.869085 454.790284 274.326031 454.790284 
z
" clip-path="url(#pa33548b56b)" style="fill: #ff0000; fill-opacity: 0.5; stroke: #ff0000; stroke-opacity: 0.5"/>
    <path d="M 232.629406 453.796522 
C 233.086353 453.796522 233.524645 453.614975 233.847755 453.291865 
C 234.170865 452.968755 234.352412 452.530463 234.352412 452.073516 
C 234.352412 451.616569 234.170865 451.178277 233.847755 450.855167 
C 233.524645 450.532057 233.086353 450.35051 232.629406 450.35051 
C 232.172459 450.35051 231.734167 450.532057 231.411057 450.855167 
C 231.087947 451.178277 230.9064 451.616569 230.9064 452.073516 
C 230.9064 452.530463 231.087947 452.968755 231.411057 453.291865 
C 231.734167 453.614975 232.172459 453.796522 232.629406 453.796522 
z
" clip-path="url(#pa33548b56b)" style="fill: #ff0000; fill-opacity: 0.5; stroke: #ff0000; stroke-opacity: 0.5"/>
    <path d="M 291.271992 450.572916 
C 291.70422 450.572916 292.118803 450.40119 292.424435 450.095558 
C 292.730066 449.789927 292.901792 449.375343 292.901792 448.943115 
C 292.901792 448.510887 292.730066 448.096303 292.424435 447.790672 
C 292.118803 447.485041 291.70422 447.313314 291.271992 447.313314 
C 290.839763 447.313314 290.42518 447.485041 290.119549 447.790672 
C 289.813917 448.096303 289.642191 448.510887 289.642191 448.943115 
C 289.642191 449.375343 289.813917 449.789927 290.119549 450.095558 
C 290.42518 450.40119 290.839763 450.572916 291.271992 450.572916 
z
" clip-path="url(#pa33548b56b)" style="fill: #ff0000; fill-opacity: 0.5; stroke: #ff0000; stroke-opacity: 0.5"/>
    <path d="M 290.779842 448.130734 
C 291.172082 448.130734 291.548311 447.974895 291.825667 447.697539 
C 292.103023 447.420183 292.258862 447.043955 292.258862 446.651714 
C 292.258862 446.259473 292.103023 445.883245 291.825667 445.605889 
C 291.548311 445.328533 291.172082 445.172694 290.779842 445.172694 
C 290.387601 445.172694 290.011373 445.328533 289.734017 445.605889 
C 289.456661 445.883245 289.300822 446.259473 289.300822 446.651714 
C 289.300822 447.043955 289.456661 447.420183 289.734017 447.697539 
C 290.011373 447.974895 290.387601 448.130734 290.779842 448.130734 
z
" clip-path="url(#pa33548b56b)" style="fill: #ff0000; fill-opacity: 0.5; stroke: #ff0000; stroke-opacity: 0.5"/>
    <path d="M 290.850184 448.257364 
C 291.276008 448.257364 291.684449 448.088182 291.985553 447.787079 
C 292.286656 447.485975 292.455838 447.077534 292.455838 446.65171 
C 292.455838 446.225885 292.286656 445.817444 291.985553 445.516341 
C 291.684449 445.215238 291.276008 445.046056 290.850184 445.046056 
C 290.424359 445.046056 290.015918 445.215238 289.714815 445.516341 
C 289.413712 445.817444 289.24453 446.225885 289.24453 446.65171 
C 289.24453 447.077534 289.413712 447.485975 289.714815 447.787079 
C 290.015918 448.088182 290.424359 448.257364 290.850184 448.257364 
z
" clip-path="url(#pa33548b56b)" style="fill: #ff0000; fill-opacity: 0.5; stroke: #ff0000; stroke-opacity: 0.5"/>
    <path d="M 265.677458 446.908158 
C 266.069699 446.908158 266.445927 446.752319 266.723283 446.474963 
C 267.000639 446.197607 267.156478 445.821378 267.156478 445.429138 
C 267.156478 445.036897 267.000639 444.660669 266.723283 444.383313 
C 266.445927 444.105957 266.069699 443.950118 265.677458 443.950118 
C 265.285218 443.950118 264.908989 444.105957 264.631633 444.383313 
C 264.354277 444.660669 264.198438 445.036897 264.198438 445.429138 
C 264.198438 445.821378 264.354277 446.197607 264.631633 446.474963 
C 264.908989 446.752319 265.285218 446.908158 265.677458 446.908158 
z
" clip-path="url(#pa33548b56b)" style="fill: #ff0000; fill-opacity: 0.5; stroke: #ff0000; stroke-opacity: 0.5"/>
    <path d="M 273.834085 442.187633 
C 274.291031 442.187633 274.729324 442.006086 275.052434 441.682976 
C 275.375544 441.359866 275.557091 440.921573 275.557091 440.464627 
C 275.557091 440.00768 275.375544 439.569387 275.052434 439.246277 
C 274.729324 438.923167 274.291031 438.741621 273.834085 438.741621 
C 273.377138 438.741621 272.938845 438.923167 272.615735 439.246277 
C 272.292625 439.569387 272.111079 440.00768 272.111079 440.464627 
C 272.111079 440.921573 272.292625 441.359866 272.615735 441.682976 
C 272.938845 442.006086 273.377138 442.187633 273.834085 442.187633 
z
" clip-path="url(#pa33548b56b)" style="fill: #ff0000; fill-opacity: 0.5; stroke: #ff0000; stroke-opacity: 0.5"/>
    <path d="M 294.225415 441.729761 
C 294.682361 441.729761 295.120654 441.548214 295.443764 441.225104 
C 295.766874 440.901994 295.948421 440.463701 295.948421 440.006755 
C 295.948421 439.549808 295.766874 439.111516 295.443764 438.788406 
C 295.120654 438.465296 294.682361 438.283749 294.225415 438.283749 
C 293.768468 438.283749 293.330175 438.465296 293.007065 438.788406 
C 292.683955 439.111516 292.502409 439.549808 292.502409 440.006755 
C 292.502409 440.463701 292.683955 440.901994 293.007065 441.225104 
C 293.330175 441.548214 293.768468 441.729761 294.225415 441.729761 
z
" clip-path="url(#pa33548b56b)" style="fill: #ff0000; fill-opacity: 0.5; stroke: #ff0000; stroke-opacity: 0.5"/>
    <path d="M 294.366056 441.612416 
C 294.791881 441.612416 295.200322 441.443234 295.501425 441.142131 
C 295.802529 440.841028 295.971711 440.432587 295.971711 440.006762 
C 295.971711 439.580938 295.802529 439.172497 295.501425 438.871393 
C 295.200322 438.57029 294.791881 438.401108 294.366056 438.401108 
C 293.940232 438.401108 293.531791 438.57029 293.230688 438.871393 
C 292.929584 439.172497 292.760402 439.580938 292.760402 440.006762 
C 292.760402 440.432587 292.929584 440.841028 293.230688 441.142131 
C 293.531791 441.443234 293.940232 441.612416 294.366056 441.612416 
z
" clip-path="url(#pa33548b56b)" style="fill: #ff0000; fill-opacity: 0.5; stroke: #ff0000; stroke-opacity: 0.5"/>
    <path d="M 294.366043 441.653385 
C 294.82299 441.653385 295.261283 441.471839 295.584393 441.148729 
C 295.907503 440.825619 296.08905 440.387326 296.08905 439.930379 
C 296.08905 439.473433 295.907503 439.03514 295.584393 438.71203 
C 295.261283 438.38892 294.82299 438.207373 294.366043 438.207373 
C 293.909097 438.207373 293.470804 438.38892 293.147694 438.71203 
C 292.824584 439.03514 292.643037 439.473433 292.643037 439.930379 
C 292.643037 440.387326 292.824584 440.825619 293.147694 441.148729 
C 293.470804 441.471839 293.909097 441.653385 294.366043 441.653385 
z
" clip-path="url(#pa33548b56b)" style="fill: #ff0000; fill-opacity: 0.5; stroke: #ff0000; stroke-opacity: 0.5"/>
    <path d="M 261.810332 440.872102 
C 262.24256 440.872102 262.657143 440.700376 262.962775 440.394745 
C 263.268406 440.089113 263.440132 439.67453 263.440132 439.242302 
C 263.440132 438.810074 263.268406 438.39549 262.962775 438.089859 
C 262.657143 437.784227 262.24256 437.612501 261.810332 437.612501 
C 261.378104 437.612501 260.96352 437.784227 260.657889 438.089859 
C 260.352257 438.39549 260.180531 438.810074 260.180531 439.242302 
C 260.180531 439.67453 260.352257 440.089113 260.657889 440.394745 
C 260.96352 440.700376 261.378104 440.872102 261.810332 440.872102 
z
" clip-path="url(#pa33548b56b)" style="fill: #ff0000; fill-opacity: 0.5; stroke: #ff0000; stroke-opacity: 0.5"/>
    <path d="M 268.841881 434.992995 
C 269.234121 434.992995 269.61035 434.837156 269.887706 434.5598 
C 270.165062 434.282444 270.320901 433.906215 270.320901 433.513975 
C 270.320901 433.121734 270.165062 432.745506 269.887706 432.46815 
C 269.61035 432.190794 269.234121 432.034955 268.841881 432.034955 
C 268.44964 432.034955 268.073412 432.190794 267.796056 432.46815 
C 267.5187 432.745506 267.362861 433.121734 267.362861 433.513975 
C 267.362861 433.906215 267.5187 434.282444 267.796056 434.5598 
C 268.073412 434.837156 268.44964 434.992995 268.841881 434.992995 
z
" clip-path="url(#pa33548b56b)" style="fill: #ff0000; fill-opacity: 0.5; stroke: #ff0000; stroke-opacity: 0.5"/>
    <path d="M 295.842872 433.175266 
C 296.299818 433.175266 296.738111 432.993719 297.061221 432.670609 
C 297.384331 432.347499 297.565878 431.909206 297.565878 431.452259 
C 297.565878 430.995313 297.384331 430.55702 297.061221 430.23391 
C 296.738111 429.9108 296.299818 429.729253 295.842872 429.729253 
C 295.385925 429.729253 294.947633 429.9108 294.624523 430.23391 
C 294.301413 430.55702 294.119866 430.995313 294.119866 431.452259 
C 294.119866 431.909206 294.301413 432.347499 294.624523 432.670609 
C 294.947633 432.993719 295.385925 433.175266 295.842872 433.175266 
z
" clip-path="url(#pa33548b56b)" style="fill: #ff0000; fill-opacity: 0.5; stroke: #ff0000; stroke-opacity: 0.5"/>
    <path d="M 295.772523 432.981528 
C 296.198347 432.981528 296.606788 432.812346 296.907892 432.511243 
C 297.208995 432.21014 297.378177 431.801699 297.378177 431.375874 
C 297.378177 430.95005 297.208995 430.541609 296.907892 430.240505 
C 296.606788 429.939402 296.198347 429.77022 295.772523 429.77022 
C 295.346698 429.77022 294.938257 429.939402 294.637154 430.240505 
C 294.33605 430.541609 294.166869 430.95005 294.166869 431.375874 
C 294.166869 431.801699 294.33605 432.21014 294.637154 432.511243 
C 294.938257 432.812346 295.346698 432.981528 295.772523 432.981528 
z
" clip-path="url(#pa33548b56b)" style="fill: #ff0000; fill-opacity: 0.5; stroke: #ff0000; stroke-opacity: 0.5"/>
    <path d="M 265.11526 431.417917 
C 265.572207 431.417917 266.010499 431.23637 266.333609 430.91326 
C 266.656719 430.59015 266.838266 430.151858 266.838266 429.694911 
C 266.838266 429.237965 266.656719 428.799672 266.333609 428.476562 
C 266.010499 428.153452 265.572207 427.971905 265.11526 427.971905 
C 264.658313 427.971905 264.220021 428.153452 263.896911 428.476562 
C 263.573801 428.799672 263.392254 429.237965 263.392254 429.694911 
C 263.392254 430.151858 263.573801 430.59015 263.896911 430.91326 
C 264.220021 431.23637 264.658313 431.417917 265.11526 431.417917 
z
" clip-path="url(#pa33548b56b)" style="fill: #ff0000; fill-opacity: 0.5; stroke: #ff0000; stroke-opacity: 0.5"/>
    <path d="M 265.11526 431.417917 
C 265.572207 431.417917 266.010499 431.23637 266.333609 430.91326 
C 266.656719 430.59015 266.838266 430.151858 266.838266 429.694911 
C 266.838266 429.237965 266.656719 428.799672 266.333609 428.476562 
C 266.010499 428.153452 265.572207 427.971905 265.11526 427.971905 
C 264.658313 427.971905 264.220021 428.153452 263.896911 428.476562 
C 263.573801 428.799672 263.392254 429.237965 263.392254 429.694911 
C 263.392254 430.151858 263.573801 430.59015 263.896911 430.91326 
C 264.220021 431.23637 264.658313 431.417917 265.11526 431.417917 
z
" clip-path="url(#pa33548b56b)" style="fill: #ff0000; fill-opacity: 0.5; stroke: #ff0000; stroke-opacity: 0.5"/>
    <path d="M 256.818137 429.737397 
C 257.275084 429.737397 257.713376 429.55585 258.036486 429.23274 
C 258.359596 428.90963 258.541143 428.471337 258.541143 428.014391 
C 258.541143 427.557444 258.359596 427.119151 258.036486 426.796041 
C 257.713376 426.472931 257.275084 426.291385 256.818137 426.291385 
C 256.361191 426.291385 255.922898 426.472931 255.599788 426.796041 
C 255.276678 427.119151 255.095131 427.557444 255.095131 428.014391 
C 255.095131 428.471337 255.276678 428.90963 255.599788 429.23274 
C 255.922898 429.55585 256.361191 429.737397 256.818137 429.737397 
z
" clip-path="url(#pa33548b56b)" style="fill: #ff0000; fill-opacity: 0.5; stroke: #ff0000; stroke-opacity: 0.5"/>
    <path d="M 268.631049 429.383934 
C 268.994193 429.383934 269.342513 429.239655 269.599294 428.982873 
C 269.856076 428.726091 270.000355 428.377772 270.000355 428.014627 
C 270.000355 427.651483 269.856076 427.303163 269.599294 427.046381 
C 269.342513 426.7896 268.994193 426.645321 268.631049 426.645321 
C 268.267904 426.645321 267.919585 426.7896 267.662803 427.046381 
C 267.406021 427.303163 267.261742 427.651483 267.261742 428.014627 
C 267.261742 428.377772 267.406021 428.726091 267.662803 428.982873 
C 267.919585 429.239655 268.267904 429.383934 268.631049 429.383934 
z
" clip-path="url(#pa33548b56b)" style="fill: #ff0000; fill-opacity: 0.5; stroke: #ff0000; stroke-opacity: 0.5"/>
    <path d="M 288.319238 428.47054 
C 288.500811 428.47054 288.67497 428.398401 288.803361 428.27001 
C 288.931752 428.141619 289.003892 427.967459 289.003892 427.785887 
C 289.003892 427.604315 288.931752 427.430155 288.803361 427.301764 
C 288.67497 427.173373 288.500811 427.101233 288.319238 427.101233 
C 288.137666 427.101233 287.963506 427.173373 287.835116 427.301764 
C 287.706725 427.430155 287.634585 427.604315 287.634585 427.785887 
C 287.634585 427.967459 287.706725 428.141619 287.835116 428.27001 
C 287.963506 428.398401 288.137666 428.47054 288.319238 428.47054 
z
" clip-path="url(#pa33548b56b)" style="fill: #ff0000; fill-opacity: 0.5; stroke: #ff0000; stroke-opacity: 0.5"/>
    <path d="M 274.115639 429.155482 
C 274.782778 429.155482 275.422682 428.890425 275.894421 428.418687 
C 276.366159 427.946949 276.631216 427.307044 276.631216 426.639906 
C 276.631216 425.972767 276.366159 425.332863 275.894421 424.861125 
C 275.422682 424.389386 274.782778 424.124329 274.115639 424.124329 
C 273.448501 424.124329 272.808596 424.389386 272.336858 424.861125 
C 271.86512 425.332863 271.600063 425.972767 271.600063 426.639906 
C 271.600063 427.307044 271.86512 427.946949 272.336858 428.418687 
C 272.808596 428.890425 273.448501 429.155482 274.115639 429.155482 
z
" clip-path="url(#pa33548b56b)" style="fill: #ff0000; fill-opacity: 0.5; stroke: #ff0000; stroke-opacity: 0.5"/>
    <path d="M 282.834678 427.125354 
C 283.348242 427.125354 283.84084 426.921313 284.203985 426.558168 
C 284.567129 426.195024 284.77117 425.702425 284.77117 425.188862 
C 284.77117 424.675298 284.567129 424.1827 284.203985 423.819556 
C 283.84084 423.456411 283.348242 423.25237 282.834678 423.25237 
C 282.321115 423.25237 281.828516 423.456411 281.465372 423.819556 
C 281.102228 424.1827 280.898187 424.675298 280.898187 425.188862 
C 280.898187 425.702425 281.102228 426.195024 281.465372 426.558168 
C 281.828516 426.921313 282.321115 427.125354 282.834678 427.125354 
z
" clip-path="url(#pa33548b56b)" style="fill: #ff0000; fill-opacity: 0.5; stroke: #ff0000; stroke-opacity: 0.5"/>
    <path d="M 282.272203 425.67356 
C 282.846384 425.67356 283.397126 425.445435 283.803134 425.039427 
C 284.209142 424.63342 284.437266 424.082678 284.437266 423.508496 
C 284.437266 422.934315 284.209142 422.383573 283.803134 421.977565 
C 283.397126 421.571558 282.846384 421.343433 282.272203 421.343433 
C 281.698021 421.343433 281.147279 421.571558 280.741272 421.977565 
C 280.335264 422.383573 280.107139 422.934315 280.107139 423.508496 
C 280.107139 424.082678 280.335264 424.63342 280.741272 425.039427 
C 281.147279 425.445435 281.698021 425.67356 282.272203 425.67356 
z
" clip-path="url(#pa33548b56b)" style="fill: #ff0000; fill-opacity: 0.5; stroke: #ff0000; stroke-opacity: 0.5"/>
    <path d="M 291.131867 424.87798 
C 291.495012 424.87798 291.843331 424.733702 292.100113 424.47692 
C 292.356895 424.220138 292.501174 423.871818 292.501174 423.508674 
C 292.501174 423.14553 292.356895 422.79721 292.100113 422.540428 
C 291.843331 422.283646 291.495012 422.139368 291.131867 422.139368 
C 290.768723 422.139368 290.420403 422.283646 290.163622 422.540428 
C 289.90684 422.79721 289.762561 423.14553 289.762561 423.508674 
C 289.762561 423.871818 289.90684 424.220138 290.163622 424.47692 
C 290.420403 424.733702 290.768723 424.87798 291.131867 424.87798 
z
" clip-path="url(#pa33548b56b)" style="fill: #ff0000; fill-opacity: 0.5; stroke: #ff0000; stroke-opacity: 0.5"/>
    <path d="M 303.999517 423.23122 
C 304.391758 423.23122 304.767986 423.075381 305.045342 422.798025 
C 305.322698 422.520669 305.478537 422.14444 305.478537 421.7522 
C 305.478537 421.359959 305.322698 420.983731 305.045342 420.706375 
C 304.767986 420.429019 304.391758 420.27318 303.999517 420.27318 
C 303.607277 420.27318 303.231048 420.429019 302.953692 420.706375 
C 302.676336 420.983731 302.520497 421.359959 302.520497 421.7522 
C 302.520497 422.14444 302.676336 422.520669 302.953692 422.798025 
C 303.231048 423.075381 303.607277 423.23122 303.999517 423.23122 
z
" clip-path="url(#pa33548b56b)" style="fill: #ff0000; fill-opacity: 0.5; stroke: #ff0000; stroke-opacity: 0.5"/>
    <path d="M 297.600951 421.107308 
C 298.057897 421.107308 298.49619 420.925761 298.8193 420.602651 
C 299.14241 420.279541 299.323957 419.841248 299.323957 419.384302 
C 299.323957 418.927355 299.14241 418.489062 298.8193 418.165952 
C 298.49619 417.842842 298.057897 417.661295 297.600951 417.661295 
C 297.144004 417.661295 296.705712 417.842842 296.382602 418.165952 
C 296.059492 418.489062 295.877945 418.927355 295.877945 419.384302 
C 295.877945 419.841248 296.059492 420.279541 296.382602 420.602651 
C 296.705712 420.925761 297.144004 421.107308 297.600951 421.107308 
z
" clip-path="url(#pa33548b56b)" style="fill: #ff0000; fill-opacity: 0.5; stroke: #ff0000; stroke-opacity: 0.5"/>
    <path d="M 262.724815 420.419193 
C 263.181761 420.419193 263.620054 420.237646 263.943164 419.914536 
C 264.266274 419.591426 264.447821 419.153134 264.447821 418.696187 
C 264.447821 418.23924 264.266274 417.800948 263.943164 417.477838 
C 263.620054 417.154728 263.181761 416.973181 262.724815 416.973181 
C 262.267868 416.973181 261.829575 417.154728 261.506465 417.477838 
C 261.183355 417.800948 261.001808 418.23924 261.001808 418.696187 
C 261.001808 419.153134 261.183355 419.591426 261.506465 419.914536 
C 261.829575 420.237646 262.267868 420.419193 262.724815 420.419193 
z
" clip-path="url(#pa33548b56b)" style="fill: #ff0000; fill-opacity: 0.5; stroke: #ff0000; stroke-opacity: 0.5"/>
    <path d="M 288.881936 419.961437 
C 289.338883 419.961437 289.777176 419.77989 290.100286 419.45678 
C 290.423396 419.13367 290.604942 418.695378 290.604942 418.238431 
C 290.604942 417.781484 290.423396 417.343192 290.100286 417.020082 
C 289.777176 416.696972 289.338883 416.515425 288.881936 416.515425 
C 288.42499 416.515425 287.986697 416.696972 287.663587 417.020082 
C 287.340477 417.343192 287.15893 417.781484 287.15893 418.238431 
C 287.15893 418.695378 287.340477 419.13367 287.663587 419.45678 
C 287.986697 419.77989 288.42499 419.961437 288.881936 419.961437 
z
" clip-path="url(#pa33548b56b)" style="fill: #ff0000; fill-opacity: 0.5; stroke: #ff0000; stroke-opacity: 0.5"/>
    <path d="M 266.240606 418.586152 
C 266.697553 418.586152 267.135846 418.404606 267.458956 418.081496 
C 267.782066 417.758386 267.963612 417.320093 267.963612 416.863146 
C 267.963612 416.4062 267.782066 415.967907 267.458956 415.644797 
C 267.135846 415.321687 266.697553 415.14014 266.240606 415.14014 
C 265.78366 415.14014 265.345367 415.321687 265.022257 415.644797 
C 264.699147 415.967907 264.5176 416.4062 264.5176 416.863146 
C 264.5176 417.320093 264.699147 417.758386 265.022257 418.081496 
C 265.345367 418.404606 265.78366 418.586152 266.240606 418.586152 
z
" clip-path="url(#pa33548b56b)" style="fill: #ff0000; fill-opacity: 0.5; stroke: #ff0000; stroke-opacity: 0.5"/>
    <path d="M 302.874615 417.670327 
C 303.331561 417.670327 303.769854 417.48878 304.092964 417.16567 
C 304.416074 416.84256 304.597621 416.404267 304.597621 415.947321 
C 304.597621 415.490374 304.416074 415.052081 304.092964 414.728971 
C 303.769854 414.405861 303.331561 414.224314 302.874615 414.224314 
C 302.417668 414.224314 301.979375 414.405861 301.656265 414.728971 
C 301.333155 415.052081 301.151608 415.490374 301.151608 415.947321 
C 301.151608 416.404267 301.333155 416.84256 301.656265 417.16567 
C 301.979375 417.48878 302.417668 417.670327 302.874615 417.670327 
z
" clip-path="url(#pa33548b56b)" style="fill: #ff0000; fill-opacity: 0.5; stroke: #ff0000; stroke-opacity: 0.5"/>
    <path d="M 277.631628 415.874374 
C 278.260612 415.874374 278.863919 415.624476 279.308679 415.179717 
C 279.753438 414.734958 280.003336 414.13165 280.003336 413.502666 
C 280.003336 412.873682 279.753438 412.270374 279.308679 411.825615 
C 278.863919 411.380856 278.260612 411.130958 277.631628 411.130958 
C 277.002643 411.130958 276.399336 411.380856 275.954577 411.825615 
C 275.509817 412.270374 275.259919 412.873682 275.259919 413.502666 
C 275.259919 414.13165 275.509817 414.734958 275.954577 415.179717 
C 276.399336 415.624476 277.002643 415.874374 277.631628 415.874374 
z
" clip-path="url(#pa33548b56b)" style="fill: #ff0000; fill-opacity: 0.5; stroke: #ff0000; stroke-opacity: 0.5"/>
    <path d="M 309.55464 413.46958 
C 310.011587 413.46958 310.44988 413.288034 310.77299 412.964923 
C 311.0961 412.641813 311.277647 412.203521 311.277647 411.746574 
C 311.277647 411.289628 311.0961 410.851335 310.77299 410.528225 
C 310.44988 410.205115 310.011587 410.023568 309.55464 410.023568 
C 309.097694 410.023568 308.659401 410.205115 308.336291 410.528225 
C 308.013181 410.851335 307.831634 411.289628 307.831634 411.746574 
C 307.831634 412.203521 308.013181 412.641813 308.336291 412.964923 
C 308.659401 413.288034 309.097694 413.46958 309.55464 413.46958 
z
" clip-path="url(#pa33548b56b)" style="fill: #ff0000; fill-opacity: 0.5; stroke: #ff0000; stroke-opacity: 0.5"/>
    <path d="M 312.296892 412.613804 
C 312.810456 412.613804 313.303054 412.409763 313.666199 412.046618 
C 314.029343 411.683474 314.233384 411.190876 314.233384 410.677312 
C 314.233384 410.163748 314.029343 409.67115 313.666199 409.308006 
C 313.303054 408.944861 312.810456 408.74082 312.296892 408.74082 
C 311.783329 408.74082 311.29073 408.944861 310.927586 409.308006 
C 310.564442 409.67115 310.360401 410.163748 310.360401 410.677312 
C 310.360401 411.190876 310.564442 411.683474 310.927586 412.046618 
C 311.29073 412.409763 311.783329 412.613804 312.296892 412.613804 
z
" clip-path="url(#pa33548b56b)" style="fill: #ff0000; fill-opacity: 0.5; stroke: #ff0000; stroke-opacity: 0.5"/>
    <path d="M 317.570613 409.786692 
C 318.002841 409.786692 318.417424 409.614966 318.723056 409.309335 
C 319.028687 409.003703 319.200413 408.58912 319.200413 408.156892 
C 319.200413 407.724664 319.028687 407.31008 318.723056 407.004449 
C 318.417424 406.698817 318.002841 406.527091 317.570613 406.527091 
C 317.138385 406.527091 316.723801 406.698817 316.41817 407.004449 
C 316.112538 407.31008 315.940812 407.724664 315.940812 408.156892 
C 315.940812 408.58912 316.112538 409.003703 316.41817 409.309335 
C 316.723801 409.614966 317.138385 409.786692 317.570613 409.786692 
z
" clip-path="url(#pa33548b56b)" style="fill: #ff0000; fill-opacity: 0.5; stroke: #ff0000; stroke-opacity: 0.5"/>
    <path d="M 317.781554 409.879902 
C 318.2385 409.879902 318.676793 409.698355 318.999903 409.375245 
C 319.323013 409.052135 319.50456 408.613843 319.50456 408.156896 
C 319.50456 407.699949 319.323013 407.261657 318.999903 406.938547 
C 318.676793 406.615437 318.2385 406.43389 317.781554 406.43389 
C 317.324607 406.43389 316.886314 406.615437 316.563204 406.938547 
C 316.240094 407.261657 316.058548 407.699949 316.058548 408.156896 
C 316.058548 408.613843 316.240094 409.052135 316.563204 409.375245 
C 316.886314 409.698355 317.324607 409.879902 317.781554 409.879902 
z
" clip-path="url(#pa33548b56b)" style="fill: #ff0000; fill-opacity: 0.5; stroke: #ff0000; stroke-opacity: 0.5"/>
    <path d="M 317.992478 409.609792 
C 318.418302 409.609792 318.826744 409.44061 319.127847 409.139507 
C 319.42895 408.838403 319.598132 408.429962 319.598132 408.004138 
C 319.598132 407.578313 319.42895 407.169872 319.127847 406.868769 
C 318.826744 406.567666 318.418302 406.398484 317.992478 406.398484 
C 317.566654 406.398484 317.158213 406.567666 316.857109 406.868769 
C 316.556006 407.169872 316.386824 407.578313 316.386824 408.004138 
C 316.386824 408.429962 316.556006 408.838403 316.857109 409.139507 
C 317.158213 409.44061 317.566654 409.609792 317.992478 409.609792 
z
" clip-path="url(#pa33548b56b)" style="fill: #ff0000; fill-opacity: 0.5; stroke: #ff0000; stroke-opacity: 0.5"/>
    <path d="M 258.435848 408.107127 
C 258.828089 408.107127 259.204317 407.951288 259.481673 407.673932 
C 259.759029 407.396576 259.914868 407.020348 259.914868 406.628107 
C 259.914868 406.235866 259.759029 405.859638 259.481673 405.582282 
C 259.204317 405.304926 258.828089 405.149087 258.435848 405.149087 
C 258.043607 405.149087 257.667379 405.304926 257.390023 405.582282 
C 257.112667 405.859638 256.956828 406.235866 256.956828 406.628107 
C 256.956828 407.020348 257.112667 407.396576 257.390023 407.673932 
C 257.667379 407.951288 258.043607 408.107127 258.435848 408.107127 
z
" clip-path="url(#pa33548b56b)" style="fill: #ff0000; fill-opacity: 0.5; stroke: #ff0000; stroke-opacity: 0.5"/>
    <path d="M 248.662055 407.128843 
C 249.119001 407.128843 249.557294 406.947297 249.880404 406.624187 
C 250.203514 406.301077 250.385061 405.862784 250.385061 405.405837 
C 250.385061 404.948891 250.203514 404.510598 249.880404 404.187488 
C 249.557294 403.864378 249.119001 403.682831 248.662055 403.682831 
C 248.205108 403.682831 247.766816 403.864378 247.443706 404.187488 
C 247.120596 404.510598 246.939049 404.948891 246.939049 405.405837 
C 246.939049 405.862784 247.120596 406.301077 247.443706 406.624187 
C 247.766816 406.947297 248.205108 407.128843 248.662055 407.128843 
z
" clip-path="url(#pa33548b56b)" style="fill: #ff0000; fill-opacity: 0.5; stroke: #ff0000; stroke-opacity: 0.5"/>
    <path d="M 315.883145 403.158447 
C 316.340091 403.158447 316.778384 402.9769 317.101494 402.65379 
C 317.424604 402.33068 317.606151 401.892387 317.606151 401.435441 
C 317.606151 400.978494 317.424604 400.540201 317.101494 400.217091 
C 316.778384 399.893981 316.340091 399.712435 315.883145 399.712435 
C 315.426198 399.712435 314.987905 399.893981 314.664795 400.217091 
C 314.341685 400.540201 314.160139 400.978494 314.160139 401.435441 
C 314.160139 401.892387 314.341685 402.33068 314.664795 402.65379 
C 314.987905 402.9769 315.426198 403.158447 315.883145 403.158447 
z
" clip-path="url(#pa33548b56b)" style="fill: #ff0000; fill-opacity: 0.5; stroke: #ff0000; stroke-opacity: 0.5"/>
    <path d="M 253.303033 400.3163 
C 253.695274 400.3163 254.071502 400.160461 254.348858 399.883105 
C 254.626214 399.605749 254.782053 399.22952 254.782053 398.83728 
C 254.782053 398.445039 254.626214 398.068811 254.348858 397.791455 
C 254.071502 397.514099 253.695274 397.35826 253.303033 397.35826 
C 252.910793 397.35826 252.534564 397.514099 252.257208 397.791455 
C 251.979852 398.068811 251.824013 398.445039 251.824013 398.83728 
C 251.824013 399.22952 251.979852 399.605749 252.257208 399.883105 
C 252.534564 400.160461 252.910793 400.3163 253.303033 400.3163 
z
" clip-path="url(#pa33548b56b)" style="fill: #ff0000; fill-opacity: 0.5; stroke: #ff0000; stroke-opacity: 0.5"/>
    <path d="M 253.373315 400.442929 
C 253.799139 400.442929 254.20758 400.273748 254.508683 399.972644 
C 254.809787 399.671541 254.978969 399.2631 254.978969 398.837275 
C 254.978969 398.411451 254.809787 398.00301 254.508683 397.701907 
C 254.20758 397.400803 253.799139 397.231621 253.373315 397.231621 
C 252.94749 397.231621 252.539049 397.400803 252.237946 397.701907 
C 251.936842 398.00301 251.767661 398.411451 251.767661 398.837275 
C 251.767661 399.2631 251.936842 399.671541 252.237946 399.972644 
C 252.539049 400.273748 252.94749 400.442929 253.373315 400.442929 
z
" clip-path="url(#pa33548b56b)" style="fill: #ff0000; fill-opacity: 0.5; stroke: #ff0000; stroke-opacity: 0.5"/>
    <path d="M 309.906503 398.651922 
C 310.363449 398.651922 310.801742 398.470376 311.124852 398.147266 
C 311.447962 397.824156 311.629509 397.385863 311.629509 396.928916 
C 311.629509 396.47197 311.447962 396.033677 311.124852 395.710567 
C 310.801742 395.387457 310.363449 395.20591 309.906503 395.20591 
C 309.449556 395.20591 309.011263 395.387457 308.688153 395.710567 
C 308.365043 396.033677 308.183496 396.47197 308.183496 396.928916 
C 308.183496 397.385863 308.365043 397.824156 308.688153 398.147266 
C 309.011263 398.470376 309.449556 398.651922 309.906503 398.651922 
z
" clip-path="url(#pa33548b56b)" style="fill: #ff0000; fill-opacity: 0.5; stroke: #ff0000; stroke-opacity: 0.5"/>
    <path d="M 319.891249 395.444182 
C 320.348195 395.444182 320.786488 395.262635 321.109598 394.939525 
C 321.432708 394.616415 321.614255 394.178122 321.614255 393.721175 
C 321.614255 393.264229 321.432708 392.825936 321.109598 392.502826 
C 320.786488 392.179716 320.348195 391.998169 319.891249 391.998169 
C 319.434302 391.998169 318.996009 392.179716 318.672899 392.502826 
C 318.349789 392.825936 318.168242 393.264229 318.168242 393.721175 
C 318.168242 394.178122 318.349789 394.616415 318.672899 394.939525 
C 318.996009 395.262635 319.434302 395.444182 319.891249 395.444182 
z
" clip-path="url(#pa33548b56b)" style="fill: #ff0000; fill-opacity: 0.5; stroke: #ff0000; stroke-opacity: 0.5"/>
    <path d="M 259.561133 394.478233 
C 259.924278 394.478233 260.272597 394.333954 260.529379 394.077172 
C 260.786161 393.82039 260.93044 393.472071 260.93044 393.108926 
C 260.93044 392.745782 260.786161 392.397462 260.529379 392.140681 
C 260.272597 391.883899 259.924278 391.73962 259.561133 391.73962 
C 259.197989 391.73962 258.849669 391.883899 258.592887 392.140681 
C 258.336106 392.397462 258.191827 392.745782 258.191827 393.108926 
C 258.191827 393.472071 258.336106 393.82039 258.592887 394.077172 
C 258.849669 394.333954 259.197989 394.478233 259.561133 394.478233 
z
" clip-path="url(#pa33548b56b)" style="fill: #ff0000; fill-opacity: 0.5; stroke: #ff0000; stroke-opacity: 0.5"/>
    <path d="M 319.117888 390.584062 
C 319.481033 390.584062 319.829352 390.439783 320.086134 390.183001 
C 320.342916 389.92622 320.487195 389.5779 320.487195 389.214756 
C 320.487195 388.851611 320.342916 388.503292 320.086134 388.24651 
C 319.829352 387.989728 319.481033 387.845449 319.117888 387.845449 
C 318.754744 387.845449 318.406424 387.989728 318.149643 388.24651 
C 317.892861 388.503292 317.748582 388.851611 317.748582 389.214756 
C 317.748582 389.5779 317.892861 389.92622 318.149643 390.183001 
C 318.406424 390.439783 318.754744 390.584062 319.117888 390.584062 
z
" clip-path="url(#pa33548b56b)" style="fill: #ff0000; fill-opacity: 0.5; stroke: #ff0000; stroke-opacity: 0.5"/>
    <path d="M 317.36005 390.617362 
C 317.75229 390.617362 318.128519 390.461523 318.405875 390.184167 
C 318.683231 389.906811 318.83907 389.530583 318.83907 389.138342 
C 318.83907 388.746101 318.683231 388.369873 318.405875 388.092517 
C 318.128519 387.815161 317.75229 387.659322 317.36005 387.659322 
C 316.967809 387.659322 316.591581 387.815161 316.314225 388.092517 
C 316.036869 388.369873 315.88103 388.746101 315.88103 389.138342 
C 315.88103 389.530583 316.036869 389.906811 316.314225 390.184167 
C 316.591581 390.461523 316.967809 390.617362 317.36005 390.617362 
z
" clip-path="url(#pa33548b56b)" style="fill: #ff0000; fill-opacity: 0.5; stroke: #ff0000; stroke-opacity: 0.5"/>
    <path d="M 287.476361 384.582759 
C 287.868601 384.582759 288.24483 384.42692 288.522186 384.149564 
C 288.799542 383.872208 288.95538 383.49598 288.95538 383.103739 
C 288.95538 382.711498 288.799542 382.33527 288.522186 382.057914 
C 288.24483 381.780558 287.868601 381.624719 287.476361 381.624719 
C 287.08412 381.624719 286.707892 381.780558 286.430536 382.057914 
C 286.153179 382.33527 285.997341 382.711498 285.997341 383.103739 
C 285.997341 383.49598 286.153179 383.872208 286.430536 384.149564 
C 286.707892 384.42692 287.08412 384.582759 287.476361 384.582759 
z
" clip-path="url(#pa33548b56b)" style="fill: #ff0000; fill-opacity: 0.5; stroke: #ff0000; stroke-opacity: 0.5"/>
    <path d="M 248.381252 384.940004 
C 249.010237 384.940004 249.613544 384.690105 250.058303 384.245346 
C 250.503062 383.800587 250.752961 383.19728 250.752961 382.568295 
C 250.752961 381.939311 250.503062 381.336003 250.058303 380.891244 
C 249.613544 380.446485 249.010237 380.196587 248.381252 380.196587 
C 247.752268 380.196587 247.14896 380.446485 246.704201 380.891244 
C 246.259442 381.336003 246.009544 381.939311 246.009544 382.568295 
C 246.009544 383.19728 246.259442 383.800587 246.704201 384.245346 
C 247.14896 384.690105 247.752268 384.940004 248.381252 384.940004 
z
" clip-path="url(#pa33548b56b)" style="fill: #ff0000; fill-opacity: 0.5; stroke: #ff0000; stroke-opacity: 0.5"/>
    <path d="M 302.877819 375.704441 
C 303.452001 375.704441 304.002742 375.476317 304.40875 375.070309 
C 304.814758 374.664301 305.042882 374.113559 305.042882 373.539378 
C 305.042882 372.965196 304.814758 372.414454 304.40875 372.008447 
C 304.002742 371.602439 303.452001 371.374314 302.877819 371.374314 
C 302.303637 371.374314 301.752896 371.602439 301.346888 372.008447 
C 300.94088 372.414454 300.712755 372.965196 300.712755 373.539378 
C 300.712755 374.113559 300.94088 374.664301 301.346888 375.070309 
C 301.752896 375.476317 302.303637 375.704441 302.877819 375.704441 
z
" clip-path="url(#pa33548b56b)" style="fill: #ff0000; fill-opacity: 0.5; stroke: #ff0000; stroke-opacity: 0.5"/>
    <path d="M 329.17329 370.589338 
C 329.642107 370.589338 330.091786 370.403075 330.42329 370.071571 
C 330.754794 369.740067 330.941057 369.290388 330.941057 368.821571 
C 330.941057 368.352754 330.754794 367.903075 330.42329 367.571571 
C 330.091786 367.240067 329.642107 367.053804 329.17329 367.053804 
C 328.704473 367.053804 328.254794 367.240067 327.92329 367.571571 
C 327.591786 367.903075 327.405523 368.352754 327.405523 368.821571 
C 327.405523 369.290388 327.591786 369.740067 327.92329 370.071571 
C 328.254794 370.403075 328.704473 370.589338 329.17329 370.589338 
z
" clip-path="url(#pa33548b56b)" style="fill: #ff0000; fill-opacity: 0.5; stroke: #ff0000; stroke-opacity: 0.5"/>
    <path d="M 329.524866 369.918706 
C 329.917106 369.918706 330.293335 369.762868 330.570691 369.485512 
C 330.848047 369.208155 331.003886 368.831927 331.003886 368.439687 
C 331.003886 368.047446 330.848047 367.671218 330.570691 367.393861 
C 330.293335 367.116505 329.917106 366.960667 329.524866 366.960667 
C 329.132625 366.960667 328.756397 367.116505 328.479041 367.393861 
C 328.201685 367.671218 328.045846 368.047446 328.045846 368.439687 
C 328.045846 368.831927 328.201685 369.208155 328.479041 369.485512 
C 328.756397 369.762868 329.132625 369.918706 329.524866 369.918706 
z
" clip-path="url(#pa33548b56b)" style="fill: #ff0000; fill-opacity: 0.5; stroke: #ff0000; stroke-opacity: 0.5"/>
    <path d="M 313.140038 369.201753 
C 313.596985 369.201753 314.035277 369.020206 314.358387 368.697096 
C 314.681497 368.373986 314.863044 367.935693 314.863044 367.478747 
C 314.863044 367.0218 314.681497 366.583508 314.358387 366.260398 
C 314.035277 365.937288 313.596985 365.755741 313.140038 365.755741 
C 312.683091 365.755741 312.244799 365.937288 311.921689 366.260398 
C 311.598579 366.583508 311.417032 367.0218 311.417032 367.478747 
C 311.417032 367.935693 311.598579 368.373986 311.921689 368.697096 
C 312.244799 369.020206 312.683091 369.201753 313.140038 369.201753 
z
" clip-path="url(#pa33548b56b)" style="fill: #ff0000; fill-opacity: 0.5; stroke: #ff0000; stroke-opacity: 0.5"/>
    <path d="M 375.4405 368.499409 
C 375.780191 368.499409 376.106014 368.364448 376.346211 368.124251 
C 376.586409 367.884053 376.721369 367.55823 376.721369 367.21854 
C 376.721369 366.878849 376.586409 366.553026 376.346211 366.312829 
C 376.106014 366.072631 375.780191 365.937671 375.4405 365.937671 
C 375.10081 365.937671 374.774987 366.072631 374.534789 366.312829 
C 374.294592 366.553026 374.159631 366.878849 374.159631 367.21854 
C 374.159631 367.55823 374.294592 367.884053 374.534789 368.124251 
C 374.774987 368.364448 375.10081 368.499409 375.4405 368.499409 
z
" clip-path="url(#pa33548b56b)" style="fill: #ff0000; fill-opacity: 0.5; stroke: #ff0000; stroke-opacity: 0.5"/>
    <path d="M 295.492545 367.243356 
C 296.066727 367.243356 296.617469 367.015231 297.023476 366.609223 
C 297.429484 366.203216 297.657609 365.652474 297.657609 365.078292 
C 297.657609 364.504111 297.429484 363.953369 297.023476 363.547361 
C 296.617469 363.141353 296.066727 362.913229 295.492545 362.913229 
C 294.918364 362.913229 294.367622 363.141353 293.961614 363.547361 
C 293.555607 363.953369 293.327482 364.504111 293.327482 365.078292 
C 293.327482 365.652474 293.555607 366.203216 293.961614 366.609223 
C 294.367622 367.015231 294.918364 367.243356 295.492545 367.243356 
z
" clip-path="url(#pa33548b56b)" style="fill: #ff0000; fill-opacity: 0.5; stroke: #ff0000; stroke-opacity: 0.5"/>
    <path d="M 377.550082 360.016487 
C 377.949266 360.016487 378.332154 359.857889 378.614419 359.575624 
C 378.896684 359.293359 379.055282 358.910471 379.055282 358.511287 
C 379.055282 358.112104 378.896684 357.729216 378.614419 357.446951 
C 378.332154 357.164685 377.949266 357.006088 377.550082 357.006088 
C 377.150899 357.006088 376.768011 357.164685 376.485746 357.446951 
C 376.20348 357.729216 376.044883 358.112104 376.044883 358.511287 
C 376.044883 358.910471 376.20348 359.293359 376.485746 359.575624 
C 376.768011 359.857889 377.150899 360.016487 377.550082 360.016487 
z
" clip-path="url(#pa33548b56b)" style="fill: #ff0000; fill-opacity: 0.5; stroke: #ff0000; stroke-opacity: 0.5"/>
    <path d="M 273.906076 357.238555 
C 274.298317 357.238555 274.674545 357.082716 274.951901 356.80536 
C 275.229257 356.528004 275.385096 356.151776 275.385096 355.759535 
C 275.385096 355.367294 275.229257 354.991066 274.951901 354.71371 
C 274.674545 354.436354 274.298317 354.280515 273.906076 354.280515 
C 273.513836 354.280515 273.137607 354.436354 272.860251 354.71371 
C 272.582895 354.991066 272.427056 355.367294 272.427056 355.759535 
C 272.427056 356.151776 272.582895 356.528004 272.860251 356.80536 
C 273.137607 357.082716 273.513836 357.238555 273.906076 357.238555 
z
" clip-path="url(#pa33548b56b)" style="fill: #ff0000; fill-opacity: 0.5; stroke: #ff0000; stroke-opacity: 0.5"/>
    <path d="M 383.527312 342.575858 
C 383.919553 342.575858 384.295781 342.420019 384.573137 342.142663 
C 384.850493 341.865307 385.006332 341.489079 385.006332 341.096838 
C 385.006332 340.704598 384.850493 340.328369 384.573137 340.051013 
C 384.295781 339.773657 383.919553 339.617818 383.527312 339.617818 
C 383.135072 339.617818 382.758843 339.773657 382.481487 340.051013 
C 382.204131 340.328369 382.048292 340.704598 382.048292 341.096838 
C 382.048292 341.489079 382.204131 341.865307 382.481487 342.142663 
C 382.758843 342.420019 383.135072 342.575858 383.527312 342.575858 
z
" clip-path="url(#pa33548b56b)" style="fill: #ff0000; fill-opacity: 0.5; stroke: #ff0000; stroke-opacity: 0.5"/>
    <path d="M 374.231435 339.935729 
C 374.630619 339.935729 375.013507 339.777131 375.295772 339.494866 
C 375.578037 339.212601 375.736635 338.829713 375.736635 338.430529 
C 375.736635 338.031346 375.578037 337.648458 375.295772 337.366193 
C 375.013507 337.083927 374.630619 336.92533 374.231435 336.92533 
C 373.832252 336.92533 373.449364 337.083927 373.167099 337.366193 
C 372.884833 337.648458 372.726236 338.031346 372.726236 338.430529 
C 372.726236 338.829713 372.884833 339.212601 373.167099 339.494866 
C 373.449364 339.777131 373.832252 339.935729 374.231435 339.935729 
z
" clip-path="url(#pa33548b56b)" style="fill: #ff0000; fill-opacity: 0.5; stroke: #ff0000; stroke-opacity: 0.5"/>
    <path d="M 407.012451 337.840795 
C 407.404692 337.840795 407.78092 337.684956 408.058276 337.4076 
C 408.335632 337.130244 408.491471 336.754016 408.491471 336.361775 
C 408.491471 335.969535 408.335632 335.593306 408.058276 335.31595 
C 407.78092 335.038594 407.404692 334.882755 407.012451 334.882755 
C 406.620211 334.882755 406.243982 335.038594 405.966626 335.31595 
C 405.68927 335.593306 405.533431 335.969535 405.533431 336.361775 
C 405.533431 336.754016 405.68927 337.130244 405.966626 337.4076 
C 406.243982 337.684956 406.620211 337.840795 407.012451 337.840795 
z
" clip-path="url(#pa33548b56b)" style="fill: #ff0000; fill-opacity: 0.5; stroke: #ff0000; stroke-opacity: 0.5"/>
    <path d="M 272.219061 332.184608 
C 272.793243 332.184608 273.343985 331.956484 273.749992 331.550476 
C 274.156 331.144468 274.384125 330.593726 274.384125 330.019545 
C 274.384125 329.445363 274.156 328.894621 273.749992 328.488614 
C 273.343985 328.082606 272.793243 327.854481 272.219061 327.854481 
C 271.64488 327.854481 271.094138 328.082606 270.68813 328.488614 
C 270.282123 328.894621 270.053998 329.445363 270.053998 330.019545 
C 270.053998 330.593726 270.282123 331.144468 270.68813 331.550476 
C 271.094138 331.956484 271.64488 332.184608 272.219061 332.184608 
z
" clip-path="url(#pa33548b56b)" style="fill: #ff0000; fill-opacity: 0.5; stroke: #ff0000; stroke-opacity: 0.5"/>
    <path d="M 369.67557 321.979255 
C 370.074753 321.979255 370.457641 321.820658 370.739906 321.538392 
C 371.022172 321.256127 371.180769 320.873239 371.180769 320.474056 
C 371.180769 320.074872 371.022172 319.691984 370.739906 319.409719 
C 370.457641 319.127453 370.074753 318.968856 369.67557 318.968856 
C 369.276386 318.968856 368.893498 319.127453 368.611233 319.409719 
C 368.328968 319.691984 368.17037 320.074872 368.17037 320.474056 
C 368.17037 320.873239 368.328968 321.256127 368.611233 321.538392 
C 368.893498 321.820658 369.276386 321.979255 369.67557 321.979255 
z
" clip-path="url(#pa33548b56b)" style="fill: #ff0000; fill-opacity: 0.5; stroke: #ff0000; stroke-opacity: 0.5"/>
    <path d="M 288.813775 312.097066 
C 289.387957 312.097066 289.938699 311.868942 290.344706 311.462934 
C 290.750714 311.056926 290.978839 310.506184 290.978839 309.932003 
C 290.978839 309.357821 290.750714 308.807079 290.344706 308.401072 
C 289.938699 307.995064 289.387957 307.766939 288.813775 307.766939 
C 288.239594 307.766939 287.688852 307.995064 287.282844 308.401072 
C 286.876837 308.807079 286.648712 309.357821 286.648712 309.932003 
C 286.648712 310.506184 286.876837 311.056926 287.282844 311.462934 
C 287.688852 311.868942 288.239594 312.097066 288.813775 312.097066 
z
" clip-path="url(#pa33548b56b)" style="fill: #ff0000; fill-opacity: 0.5; stroke: #ff0000; stroke-opacity: 0.5"/>
    <path d="M 284.595005 305.98661 
C 285.169187 305.98661 285.719929 305.758485 286.125936 305.352478 
C 286.531944 304.94647 286.760069 304.395728 286.760069 303.821546 
C 286.760069 303.247365 286.531944 302.696623 286.125936 302.290615 
C 285.719929 301.884608 285.169187 301.656483 284.595005 301.656483 
C 284.020824 301.656483 283.470082 301.884608 283.064074 302.290615 
C 282.658067 302.696623 282.429942 303.247365 282.429942 303.821546 
C 282.429942 304.395728 282.658067 304.94647 283.064074 305.352478 
C 283.470082 305.758485 284.020824 305.98661 284.595005 305.98661 
z
" clip-path="url(#pa33548b56b)" style="fill: #ff0000; fill-opacity: 0.5; stroke: #ff0000; stroke-opacity: 0.5"/>
    <path d="M 289.728074 301.022038 
C 290.302255 301.022038 290.852997 300.793914 291.259005 300.387906 
C 291.665012 299.981898 291.893137 299.431156 291.893137 298.856975 
C 291.893137 298.282793 291.665012 297.732051 291.259005 297.326044 
C 290.852997 296.920036 290.302255 296.691911 289.728074 296.691911 
C 289.153892 296.691911 288.60315 296.920036 288.197142 297.326044 
C 287.791135 297.732051 287.56301 298.282793 287.56301 298.856975 
C 287.56301 299.431156 287.791135 299.981898 288.197142 300.387906 
C 288.60315 300.793914 289.153892 301.022038 289.728074 301.022038 
z
" clip-path="url(#pa33548b56b)" style="fill: #ff0000; fill-opacity: 0.5; stroke: #ff0000; stroke-opacity: 0.5"/>
    <path d="M 258.086517 296.133103 
C 258.660699 296.133103 259.211441 295.904978 259.617448 295.49897 
C 260.023456 295.092963 260.251581 294.542221 260.251581 293.968039 
C 260.251581 293.393858 260.023456 292.843116 259.617448 292.437108 
C 259.211441 292.031101 258.660699 291.802976 258.086517 291.802976 
C 257.512336 291.802976 256.961594 292.031101 256.555586 292.437108 
C 256.149579 292.843116 255.921454 293.393858 255.921454 293.968039 
C 255.921454 294.542221 256.149579 295.092963 256.555586 295.49897 
C 256.961594 295.904978 257.512336 296.133103 258.086517 296.133103 
z
" clip-path="url(#pa33548b56b)" style="fill: #ff0000; fill-opacity: 0.5; stroke: #ff0000; stroke-opacity: 0.5"/>
    <path d="M 258.086517 296.133103 
C 258.660699 296.133103 259.211441 295.904978 259.617448 295.49897 
C 260.023456 295.092963 260.251581 294.542221 260.251581 293.968039 
C 260.251581 293.393858 260.023456 292.843116 259.617448 292.437108 
C 259.211441 292.031101 258.660699 291.802976 258.086517 291.802976 
C 257.512336 291.802976 256.961594 292.031101 256.555586 292.437108 
C 256.149579 292.843116 255.921454 293.393858 255.921454 293.968039 
C 255.921454 294.542221 256.149579 295.092963 256.555586 295.49897 
C 256.961594 295.904978 257.512336 296.133103 258.086517 296.133103 
z
" clip-path="url(#pa33548b56b)" style="fill: #ff0000; fill-opacity: 0.5; stroke: #ff0000; stroke-opacity: 0.5"/>
    <path d="M 298.728559 290.738519 
C 299.127742 290.738519 299.51063 290.579921 299.792896 290.297656 
C 300.075161 290.015391 300.233758 289.632503 300.233758 289.233319 
C 300.233758 288.834136 300.075161 288.451248 299.792896 288.168983 
C 299.51063 287.886717 299.127742 287.72812 298.728559 287.72812 
C 298.329375 287.72812 297.946488 287.886717 297.664222 288.168983 
C 297.381957 288.451248 297.22336 288.834136 297.22336 289.233319 
C 297.22336 289.632503 297.381957 290.015391 297.664222 290.297656 
C 297.946488 290.579921 298.329375 290.738519 298.728559 290.738519 
z
" clip-path="url(#pa33548b56b)" style="fill: #ff0000; fill-opacity: 0.5; stroke: #ff0000; stroke-opacity: 0.5"/>
    <path d="M 348.652217 283.150367 
C 349.226398 283.150367 349.77714 282.922243 350.183148 282.516235 
C 350.589155 282.110227 350.81728 281.559485 350.81728 280.985304 
C 350.81728 280.411122 350.589155 279.86038 350.183148 279.454373 
C 349.77714 279.048365 349.226398 278.82024 348.652217 278.82024 
C 348.078035 278.82024 347.527293 279.048365 347.121286 279.454373 
C 346.715278 279.86038 346.487153 280.411122 346.487153 280.985304 
C 346.487153 281.559485 346.715278 282.110227 347.121286 282.516235 
C 347.527293 282.922243 348.078035 283.150367 348.652217 283.150367 
z
" clip-path="url(#pa33548b56b)" style="fill: #ff0000; fill-opacity: 0.5; stroke: #ff0000; stroke-opacity: 0.5"/>
    <path d="M 260.47752 279.100469 
C 261.051702 279.100469 261.602444 278.872344 262.008451 278.466336 
C 262.414459 278.060329 262.642584 277.509587 262.642584 276.935405 
C 262.642584 276.361224 262.414459 275.810482 262.008451 275.404474 
C 261.602444 274.998467 261.051702 274.770342 260.47752 274.770342 
C 259.903339 274.770342 259.352597 274.998467 258.946589 275.404474 
C 258.540582 275.810482 258.312457 276.361224 258.312457 276.935405 
C 258.312457 277.509587 258.540582 278.060329 258.946589 278.466336 
C 259.352597 278.872344 259.903339 279.100469 260.47752 279.100469 
z
" clip-path="url(#pa33548b56b)" style="fill: #ff0000; fill-opacity: 0.5; stroke: #ff0000; stroke-opacity: 0.5"/>
    <path d="M 283.259747 270.242257 
C 283.651988 270.242257 284.028216 270.086418 284.305572 269.809062 
C 284.582928 269.531706 284.738767 269.155478 284.738767 268.763237 
C 284.738767 268.370996 284.582928 267.994768 284.305572 267.717412 
C 284.028216 267.440056 283.651988 267.284217 283.259747 267.284217 
C 282.867506 267.284217 282.491278 267.440056 282.213922 267.717412 
C 281.936566 267.994768 281.780727 268.370996 281.780727 268.763237 
C 281.780727 269.155478 281.936566 269.531706 282.213922 269.809062 
C 282.491278 270.086418 282.867506 270.242257 283.259747 270.242257 
z
" clip-path="url(#pa33548b56b)" style="fill: #ff0000; fill-opacity: 0.5; stroke: #ff0000; stroke-opacity: 0.5"/>
    <path d="M 357.231702 229.761126 
C 357.805883 229.761126 358.356625 229.533001 358.762633 229.126993 
C 359.16864 228.720986 359.396765 228.170244 359.396765 227.596062 
C 359.396765 227.021881 359.16864 226.471139 358.762633 226.065131 
C 358.356625 225.659124 357.805883 225.430999 357.231702 225.430999 
C 356.65752 225.430999 356.106778 225.659124 355.700771 226.065131 
C 355.294763 226.471139 355.066638 227.021881 355.066638 227.596062 
C 355.066638 228.170244 355.294763 228.720986 355.700771 229.126993 
C 356.106778 229.533001 356.65752 229.761126 357.231702 229.761126 
z
" clip-path="url(#pa33548b56b)" style="fill: #ff0000; fill-opacity: 0.5; stroke: #ff0000; stroke-opacity: 0.5"/>
    <path d="M 355.262925 228.512531 
C 355.566753 228.512531 355.858179 228.391819 356.073018 228.17698 
C 356.287857 227.962141 356.408569 227.670716 356.408569 227.366887 
C 356.408569 227.063059 356.287857 226.771634 356.073018 226.556795 
C 355.858179 226.341956 355.566753 226.221243 355.262925 226.221243 
C 354.959097 226.221243 354.667671 226.341956 354.452832 226.556795 
C 354.237993 226.771634 354.117281 227.063059 354.117281 227.366887 
C 354.117281 227.670716 354.237993 227.962141 354.452832 228.17698 
C 354.667671 228.391819 354.959097 228.512531 355.262925 228.512531 
z
" clip-path="url(#pa33548b56b)" style="fill: #ff0000; fill-opacity: 0.5; stroke: #ff0000; stroke-opacity: 0.5"/>
    <path d="M 305.691734 192.945069 
C 306.265915 192.945069 306.816657 192.716945 307.222665 192.310937 
C 307.628673 191.904929 307.856797 191.354187 307.856797 190.780006 
C 307.856797 190.205824 307.628673 189.655082 307.222665 189.249075 
C 306.816657 188.843067 306.265915 188.614942 305.691734 188.614942 
C 305.117552 188.614942 304.566811 188.843067 304.160803 189.249075 
C 303.754795 189.655082 303.52667 190.205824 303.52667 190.780006 
C 303.52667 191.354187 303.754795 191.904929 304.160803 192.310937 
C 304.566811 192.716945 305.117552 192.945069 305.691734 192.945069 
z
" clip-path="url(#pa33548b56b)" style="fill: #ff0000; fill-opacity: 0.5; stroke: #ff0000; stroke-opacity: 0.5"/>
    <path d="M 305.691734 192.945069 
C 306.265915 192.945069 306.816657 192.716945 307.222665 192.310937 
C 307.628673 191.904929 307.856797 191.354187 307.856797 190.780006 
C 307.856797 190.205824 307.628673 189.655082 307.222665 189.249075 
C 306.816657 188.843067 306.265915 188.614942 305.691734 188.614942 
C 305.117552 188.614942 304.566811 188.843067 304.160803 189.249075 
C 303.754795 189.655082 303.52667 190.205824 303.52667 190.780006 
C 303.52667 191.354187 303.754795 191.904929 304.160803 192.310937 
C 304.566811 192.716945 305.117552 192.945069 305.691734 192.945069 
z
" clip-path="url(#pa33548b56b)" style="fill: #ff0000; fill-opacity: 0.5; stroke: #ff0000; stroke-opacity: 0.5"/>
    <path d="M 313.426894 167.587156 
C 314.001076 167.587156 314.551818 167.359031 314.957826 166.953024 
C 315.363833 166.547016 315.591958 165.996274 315.591958 165.422093 
C 315.591958 164.847911 315.363833 164.297169 314.957826 163.891162 
C 314.551818 163.485154 314.001076 163.257029 313.426894 163.257029 
C 312.852713 163.257029 312.301971 163.485154 311.895963 163.891162 
C 311.489956 164.297169 311.261831 164.847911 311.261831 165.422093 
C 311.261831 165.996274 311.489956 166.547016 311.895963 166.953024 
C 312.301971 167.359031 312.852713 167.587156 313.426894 167.587156 
z
" clip-path="url(#pa33548b56b)" style="fill: #ff0000; fill-opacity: 0.5; stroke: #ff0000; stroke-opacity: 0.5"/>
   </g>
   <g id="matplotlib.axis_1">
    <g id="xtick_1">
     <g id="line2d_1">
      <defs>
       <path id="ma1467a8778" d="M 0 0 
L 0 3.5 
" style="stroke: #000000; stroke-width: 0.8"/>
      </defs>
      <g>
       <use xlink:href="#ma1467a8778" x="181.355983" y="512.64" style="stroke: #000000; stroke-width: 0.8"/>
      </g>
     </g>
     <g id="text_1">
      <!-- 91.25 -->
      <g transform="translate(167.041921 527.238438) scale(0.1 -0.1)">
       <defs>
        <path id="DejaVuSans-39" d="M 703 97 
L 703 672 
Q 941 559 1184 500 
Q 1428 441 1663 441 
Q 2288 441 2617 861 
Q 2947 1281 2994 2138 
Q 2813 1869 2534 1725 
Q 2256 1581 1919 1581 
Q 1219 1581 811 2004 
Q 403 2428 403 3163 
Q 403 3881 828 4315 
Q 1253 4750 1959 4750 
Q 2769 4750 3195 4129 
Q 3622 3509 3622 2328 
Q 3622 1225 3098 567 
Q 2575 -91 1691 -91 
Q 1453 -91 1209 -44 
Q 966 3 703 97 
z
M 1959 2075 
Q 2384 2075 2632 2365 
Q 2881 2656 2881 3163 
Q 2881 3666 2632 3958 
Q 2384 4250 1959 4250 
Q 1534 4250 1286 3958 
Q 1038 3666 1038 3163 
Q 1038 2656 1286 2365 
Q 1534 2075 1959 2075 
z
" transform="scale(0.015625)"/>
        <path id="DejaVuSans-31" d="M 794 531 
L 1825 531 
L 1825 4091 
L 703 3866 
L 703 4441 
L 1819 4666 
L 2450 4666 
L 2450 531 
L 3481 531 
L 3481 0 
L 794 0 
L 794 531 
z
" transform="scale(0.015625)"/>
        <path id="DejaVuSans-2e" d="M 684 794 
L 1344 794 
L 1344 0 
L 684 0 
L 684 794 
z
" transform="scale(0.015625)"/>
        <path id="DejaVuSans-32" d="M 1228 531 
L 3431 531 
L 3431 0 
L 469 0 
L 469 531 
Q 828 903 1448 1529 
Q 2069 2156 2228 2338 
Q 2531 2678 2651 2914 
Q 2772 3150 2772 3378 
Q 2772 3750 2511 3984 
Q 2250 4219 1831 4219 
Q 1534 4219 1204 4116 
Q 875 4013 500 3803 
L 500 4441 
Q 881 4594 1212 4672 
Q 1544 4750 1819 4750 
Q 2544 4750 2975 4387 
Q 3406 4025 3406 3419 
Q 3406 3131 3298 2873 
Q 3191 2616 2906 2266 
Q 2828 2175 2409 1742 
Q 1991 1309 1228 531 
z
" transform="scale(0.015625)"/>
        <path id="DejaVuSans-35" d="M 691 4666 
L 3169 4666 
L 3169 4134 
L 1269 4134 
L 1269 2991 
Q 1406 3038 1543 3061 
Q 1681 3084 1819 3084 
Q 2600 3084 3056 2656 
Q 3513 2228 3513 1497 
Q 3513 744 3044 326 
Q 2575 -91 1722 -91 
Q 1428 -91 1123 -41 
Q 819 9 494 109 
L 494 744 
Q 775 591 1075 516 
Q 1375 441 1709 441 
Q 2250 441 2565 725 
Q 2881 1009 2881 1497 
Q 2881 1984 2565 2268 
Q 2250 2553 1709 2553 
Q 1456 2553 1204 2497 
Q 953 2441 691 2322 
L 691 4666 
z
" transform="scale(0.015625)"/>
       </defs>
       <use xlink:href="#DejaVuSans-39"/>
       <use xlink:href="#DejaVuSans-31" x="63.623047"/>
       <use xlink:href="#DejaVuSans-2e" x="127.246094"/>
       <use xlink:href="#DejaVuSans-32" x="159.033203"/>
       <use xlink:href="#DejaVuSans-35" x="222.65625"/>
      </g>
     </g>
    </g>
    <g id="xtick_2">
     <g id="line2d_2">
      <g>
       <use xlink:href="#ma1467a8778" x="216.509049" y="512.64" style="stroke: #000000; stroke-width: 0.8"/>
      </g>
     </g>
     <g id="text_2">
      <!-- 91.30 -->
      <g transform="translate(202.194986 527.238438) scale(0.1 -0.1)">
       <defs>
        <path id="DejaVuSans-33" d="M 2597 2516 
Q 3050 2419 3304 2112 
Q 3559 1806 3559 1356 
Q 3559 666 3084 287 
Q 2609 -91 1734 -91 
Q 1441 -91 1130 -33 
Q 819 25 488 141 
L 488 750 
Q 750 597 1062 519 
Q 1375 441 1716 441 
Q 2309 441 2620 675 
Q 2931 909 2931 1356 
Q 2931 1769 2642 2001 
Q 2353 2234 1838 2234 
L 1294 2234 
L 1294 2753 
L 1863 2753 
Q 2328 2753 2575 2939 
Q 2822 3125 2822 3475 
Q 2822 3834 2567 4026 
Q 2313 4219 1838 4219 
Q 1578 4219 1281 4162 
Q 984 4106 628 3988 
L 628 4550 
Q 988 4650 1302 4700 
Q 1616 4750 1894 4750 
Q 2613 4750 3031 4423 
Q 3450 4097 3450 3541 
Q 3450 3153 3228 2886 
Q 3006 2619 2597 2516 
z
" transform="scale(0.015625)"/>
        <path id="DejaVuSans-30" d="M 2034 4250 
Q 1547 4250 1301 3770 
Q 1056 3291 1056 2328 
Q 1056 1369 1301 889 
Q 1547 409 2034 409 
Q 2525 409 2770 889 
Q 3016 1369 3016 2328 
Q 3016 3291 2770 3770 
Q 2525 4250 2034 4250 
z
M 2034 4750 
Q 2819 4750 3233 4129 
Q 3647 3509 3647 2328 
Q 3647 1150 3233 529 
Q 2819 -91 2034 -91 
Q 1250 -91 836 529 
Q 422 1150 422 2328 
Q 422 3509 836 4129 
Q 1250 4750 2034 4750 
z
" transform="scale(0.015625)"/>
       </defs>
       <use xlink:href="#DejaVuSans-39"/>
       <use xlink:href="#DejaVuSans-31" x="63.623047"/>
       <use xlink:href="#DejaVuSans-2e" x="127.246094"/>
       <use xlink:href="#DejaVuSans-33" x="159.033203"/>
       <use xlink:href="#DejaVuSans-30" x="222.65625"/>
      </g>
     </g>
    </g>
    <g id="xtick_3">
     <g id="line2d_3">
      <g>
       <use xlink:href="#ma1467a8778" x="251.662114" y="512.64" style="stroke: #000000; stroke-width: 0.8"/>
      </g>
     </g>
     <g id="text_3">
      <!-- 91.35 -->
      <g transform="translate(237.348051 527.238438) scale(0.1 -0.1)">
       <use xlink:href="#DejaVuSans-39"/>
       <use xlink:href="#DejaVuSans-31" x="63.623047"/>
       <use xlink:href="#DejaVuSans-2e" x="127.246094"/>
       <use xlink:href="#DejaVuSans-33" x="159.033203"/>
       <use xlink:href="#DejaVuSans-35" x="222.65625"/>
      </g>
     </g>
    </g>
    <g id="xtick_4">
     <g id="line2d_4">
      <g>
       <use xlink:href="#ma1467a8778" x="286.815179" y="512.64" style="stroke: #000000; stroke-width: 0.8"/>
      </g>
     </g>
     <g id="text_4">
      <!-- 91.40 -->
      <g transform="translate(272.501117 527.238438) scale(0.1 -0.1)">
       <defs>
        <path id="DejaVuSans-34" d="M 2419 4116 
L 825 1625 
L 2419 1625 
L 2419 4116 
z
M 2253 4666 
L 3047 4666 
L 3047 1625 
L 3713 1625 
L 3713 1100 
L 3047 1100 
L 3047 0 
L 2419 0 
L 2419 1100 
L 313 1100 
L 313 1709 
L 2253 4666 
z
" transform="scale(0.015625)"/>
       </defs>
       <use xlink:href="#DejaVuSans-39"/>
       <use xlink:href="#DejaVuSans-31" x="63.623047"/>
       <use xlink:href="#DejaVuSans-2e" x="127.246094"/>
       <use xlink:href="#DejaVuSans-34" x="159.033203"/>
       <use xlink:href="#DejaVuSans-30" x="222.65625"/>
      </g>
     </g>
    </g>
    <g id="xtick_5">
     <g id="line2d_5">
      <g>
       <use xlink:href="#ma1467a8778" x="321.968245" y="512.64" style="stroke: #000000; stroke-width: 0.8"/>
      </g>
     </g>
     <g id="text_5">
      <!-- 91.45 -->
      <g transform="translate(307.654182 527.238438) scale(0.1 -0.1)">
       <use xlink:href="#DejaVuSans-39"/>
       <use xlink:href="#DejaVuSans-31" x="63.623047"/>
       <use xlink:href="#DejaVuSans-2e" x="127.246094"/>
       <use xlink:href="#DejaVuSans-34" x="159.033203"/>
       <use xlink:href="#DejaVuSans-35" x="222.65625"/>
      </g>
     </g>
    </g>
    <g id="xtick_6">
     <g id="line2d_6">
      <g>
       <use xlink:href="#ma1467a8778" x="357.12131" y="512.64" style="stroke: #000000; stroke-width: 0.8"/>
      </g>
     </g>
     <g id="text_6">
      <!-- 91.50 -->
      <g transform="translate(342.807248 527.238438) scale(0.1 -0.1)">
       <use xlink:href="#DejaVuSans-39"/>
       <use xlink:href="#DejaVuSans-31" x="63.623047"/>
       <use xlink:href="#DejaVuSans-2e" x="127.246094"/>
       <use xlink:href="#DejaVuSans-35" x="159.033203"/>
       <use xlink:href="#DejaVuSans-30" x="222.65625"/>
      </g>
     </g>
    </g>
    <g id="xtick_7">
     <g id="line2d_7">
      <g>
       <use xlink:href="#ma1467a8778" x="392.274376" y="512.64" style="stroke: #000000; stroke-width: 0.8"/>
      </g>
     </g>
     <g id="text_7">
      <!-- 91.55 -->
      <g transform="translate(377.960313 527.238438) scale(0.1 -0.1)">
       <use xlink:href="#DejaVuSans-39"/>
       <use xlink:href="#DejaVuSans-31" x="63.623047"/>
       <use xlink:href="#DejaVuSans-2e" x="127.246094"/>
       <use xlink:href="#DejaVuSans-35" x="159.033203"/>
       <use xlink:href="#DejaVuSans-35" x="222.65625"/>
      </g>
     </g>
    </g>
   </g>
   <g id="matplotlib.axis_2">
    <g id="ytick_1">
     <g id="line2d_8">
      <defs>
       <path id="mcb1fd15a24" d="M 0 0 
L -3.5 0 
" style="stroke: #000000; stroke-width: 0.8"/>
      </defs>
      <g>
       <use xlink:href="#mcb1fd15a24" x="167.718898" y="459.936869" style="stroke: #000000; stroke-width: 0.8"/>
      </g>
     </g>
     <g id="text_8">
      <!-- 22.8 -->
      <g transform="translate(138.453273 463.736087) scale(0.1 -0.1)">
       <defs>
        <path id="DejaVuSans-38" d="M 2034 2216 
Q 1584 2216 1326 1975 
Q 1069 1734 1069 1313 
Q 1069 891 1326 650 
Q 1584 409 2034 409 
Q 2484 409 2743 651 
Q 3003 894 3003 1313 
Q 3003 1734 2745 1975 
Q 2488 2216 2034 2216 
z
M 1403 2484 
Q 997 2584 770 2862 
Q 544 3141 544 3541 
Q 544 4100 942 4425 
Q 1341 4750 2034 4750 
Q 2731 4750 3128 4425 
Q 3525 4100 3525 3541 
Q 3525 3141 3298 2862 
Q 3072 2584 2669 2484 
Q 3125 2378 3379 2068 
Q 3634 1759 3634 1313 
Q 3634 634 3220 271 
Q 2806 -91 2034 -91 
Q 1263 -91 848 271 
Q 434 634 434 1313 
Q 434 1759 690 2068 
Q 947 2378 1403 2484 
z
M 1172 3481 
Q 1172 3119 1398 2916 
Q 1625 2713 2034 2713 
Q 2441 2713 2670 2916 
Q 2900 3119 2900 3481 
Q 2900 3844 2670 4047 
Q 2441 4250 2034 4250 
Q 1625 4250 1398 4047 
Q 1172 3844 1172 3481 
z
" transform="scale(0.015625)"/>
       </defs>
       <use xlink:href="#DejaVuSans-32"/>
       <use xlink:href="#DejaVuSans-32" x="63.623047"/>
       <use xlink:href="#DejaVuSans-2e" x="127.246094"/>
       <use xlink:href="#DejaVuSans-38" x="159.033203"/>
      </g>
     </g>
    </g>
    <g id="ytick_2">
     <g id="line2d_9">
      <g>
       <use xlink:href="#mcb1fd15a24" x="167.718898" y="383.563396" style="stroke: #000000; stroke-width: 0.8"/>
      </g>
     </g>
     <g id="text_9">
      <!-- 22.9 -->
      <g transform="translate(138.453273 387.362615) scale(0.1 -0.1)">
       <use xlink:href="#DejaVuSans-32"/>
       <use xlink:href="#DejaVuSans-32" x="63.623047"/>
       <use xlink:href="#DejaVuSans-2e" x="127.246094"/>
       <use xlink:href="#DejaVuSans-39" x="159.033203"/>
      </g>
     </g>
    </g>
    <g id="ytick_3">
     <g id="line2d_10">
      <g>
       <use xlink:href="#mcb1fd15a24" x="167.718898" y="307.189924" style="stroke: #000000; stroke-width: 0.8"/>
      </g>
     </g>
     <g id="text_10">
      <!-- 23.0 -->
      <g transform="translate(138.453273 310.989143) scale(0.1 -0.1)">
       <use xlink:href="#DejaVuSans-32"/>
       <use xlink:href="#DejaVuSans-33" x="63.623047"/>
       <use xlink:href="#DejaVuSans-2e" x="127.246094"/>
       <use xlink:href="#DejaVuSans-30" x="159.033203"/>
      </g>
     </g>
    </g>
    <g id="ytick_4">
     <g id="line2d_11">
      <g>
       <use xlink:href="#mcb1fd15a24" x="167.718898" y="230.816452" style="stroke: #000000; stroke-width: 0.8"/>
      </g>
     </g>
     <g id="text_11">
      <!-- 23.1 -->
      <g transform="translate(138.453273 234.61567) scale(0.1 -0.1)">
       <use xlink:href="#DejaVuSans-32"/>
       <use xlink:href="#DejaVuSans-33" x="63.623047"/>
       <use xlink:href="#DejaVuSans-2e" x="127.246094"/>
       <use xlink:href="#DejaVuSans-31" x="159.033203"/>
      </g>
     </g>
    </g>
    <g id="ytick_5">
     <g id="line2d_12">
      <g>
       <use xlink:href="#mcb1fd15a24" x="167.718898" y="154.442979" style="stroke: #000000; stroke-width: 0.8"/>
      </g>
     </g>
     <g id="text_12">
      <!-- 23.2 -->
      <g transform="translate(138.453273 158.242198) scale(0.1 -0.1)">
       <use xlink:href="#DejaVuSans-32"/>
       <use xlink:href="#DejaVuSans-33" x="63.623047"/>
       <use xlink:href="#DejaVuSans-2e" x="127.246094"/>
       <use xlink:href="#DejaVuSans-32" x="159.033203"/>
      </g>
     </g>
    </g>
    <g id="ytick_6">
     <g id="line2d_13">
      <g>
       <use xlink:href="#mcb1fd15a24" x="167.718898" y="78.069507" style="stroke: #000000; stroke-width: 0.8"/>
      </g>
     </g>
     <g id="text_13">
      <!-- 23.3 -->
      <g transform="translate(138.453273 81.868726) scale(0.1 -0.1)">
       <use xlink:href="#DejaVuSans-32"/>
       <use xlink:href="#DejaVuSans-33" x="63.623047"/>
       <use xlink:href="#DejaVuSans-2e" x="127.246094"/>
       <use xlink:href="#DejaVuSans-33" x="159.033203"/>
      </g>
     </g>
    </g>
   </g>
   <g id="patch_3">
    <path d="M 167.718898 512.64 
L 167.718898 69.12 
" style="fill: none; stroke: #000000; stroke-width: 0.8; stroke-linejoin: miter; stroke-linecap: square"/>
   </g>
   <g id="patch_4">
    <path d="M 422.681102 512.64 
L 422.681102 69.12 
" style="fill: none; stroke: #000000; stroke-width: 0.8; stroke-linejoin: miter; stroke-linecap: square"/>
   </g>
   <g id="patch_5">
    <path d="M 167.718898 512.64 
L 422.681102 512.64 
" style="fill: none; stroke: #000000; stroke-width: 0.8; stroke-linejoin: miter; stroke-linecap: square"/>
   </g>
   <g id="patch_6">
    <path d="M 167.718898 69.12 
L 422.681102 69.12 
" style="fill: none; stroke: #000000; stroke-width: 0.8; stroke-linejoin: miter; stroke-linecap: square"/>
   </g>
   <g id="text_14">
    <!-- Feni Area -->
    <g transform="translate(267.20625 63.12) scale(0.12 -0.12)">
     <defs>
      <path id="DejaVuSans-46" d="M 628 4666 
L 3309 4666 
L 3309 4134 
L 1259 4134 
L 1259 2759 
L 3109 2759 
L 3109 2228 
L 1259 2228 
L 1259 0 
L 628 0 
L 628 4666 
z
" transform="scale(0.015625)"/>
      <path id="DejaVuSans-65" d="M 3597 1894 
L 3597 1613 
L 953 1613 
Q 991 1019 1311 708 
Q 1631 397 2203 397 
Q 2534 397 2845 478 
Q 3156 559 3463 722 
L 3463 178 
Q 3153 47 2828 -22 
Q 2503 -91 2169 -91 
Q 1331 -91 842 396 
Q 353 884 353 1716 
Q 353 2575 817 3079 
Q 1281 3584 2069 3584 
Q 2775 3584 3186 3129 
Q 3597 2675 3597 1894 
z
M 3022 2063 
Q 3016 2534 2758 2815 
Q 2500 3097 2075 3097 
Q 1594 3097 1305 2825 
Q 1016 2553 972 2059 
L 3022 2063 
z
" transform="scale(0.015625)"/>
      <path id="DejaVuSans-6e" d="M 3513 2113 
L 3513 0 
L 2938 0 
L 2938 2094 
Q 2938 2591 2744 2837 
Q 2550 3084 2163 3084 
Q 1697 3084 1428 2787 
Q 1159 2491 1159 1978 
L 1159 0 
L 581 0 
L 581 3500 
L 1159 3500 
L 1159 2956 
Q 1366 3272 1645 3428 
Q 1925 3584 2291 3584 
Q 2894 3584 3203 3211 
Q 3513 2838 3513 2113 
z
" transform="scale(0.015625)"/>
      <path id="DejaVuSans-69" d="M 603 3500 
L 1178 3500 
L 1178 0 
L 603 0 
L 603 3500 
z
M 603 4863 
L 1178 4863 
L 1178 4134 
L 603 4134 
L 603 4863 
z
" transform="scale(0.015625)"/>
      <path id="DejaVuSans-20" transform="scale(0.015625)"/>
      <path id="DejaVuSans-41" d="M 2188 4044 
L 1331 1722 
L 3047 1722 
L 2188 4044 
z
M 1831 4666 
L 2547 4666 
L 4325 0 
L 3669 0 
L 3244 1197 
L 1141 1197 
L 716 0 
L 50 0 
L 1831 4666 
z
" transform="scale(0.015625)"/>
      <path id="DejaVuSans-72" d="M 2631 2963 
Q 2534 3019 2420 3045 
Q 2306 3072 2169 3072 
Q 1681 3072 1420 2755 
Q 1159 2438 1159 1844 
L 1159 0 
L 581 0 
L 581 3500 
L 1159 3500 
L 1159 2956 
Q 1341 3275 1631 3429 
Q 1922 3584 2338 3584 
Q 2397 3584 2469 3576 
Q 2541 3569 2628 3553 
L 2631 2963 
z
" transform="scale(0.015625)"/>
      <path id="DejaVuSans-61" d="M 2194 1759 
Q 1497 1759 1228 1600 
Q 959 1441 959 1056 
Q 959 750 1161 570 
Q 1363 391 1709 391 
Q 2188 391 2477 730 
Q 2766 1069 2766 1631 
L 2766 1759 
L 2194 1759 
z
M 3341 1997 
L 3341 0 
L 2766 0 
L 2766 531 
Q 2569 213 2275 61 
Q 1981 -91 1556 -91 
Q 1019 -91 701 211 
Q 384 513 384 1019 
Q 384 1609 779 1909 
Q 1175 2209 1959 2209 
L 2766 2209 
L 2766 2266 
Q 2766 2663 2505 2880 
Q 2244 3097 1772 3097 
Q 1472 3097 1187 3025 
Q 903 2953 641 2809 
L 641 3341 
Q 956 3463 1253 3523 
Q 1550 3584 1831 3584 
Q 2591 3584 2966 3190 
Q 3341 2797 3341 1997 
z
" transform="scale(0.015625)"/>
     </defs>
     <use xlink:href="#DejaVuSans-46"/>
     <use xlink:href="#DejaVuSans-65" x="52.019531"/>
     <use xlink:href="#DejaVuSans-6e" x="113.542969"/>
     <use xlink:href="#DejaVuSans-69" x="176.921875"/>
     <use xlink:href="#DejaVuSans-20" x="204.705078"/>
     <use xlink:href="#DejaVuSans-41" x="236.492188"/>
     <use xlink:href="#DejaVuSans-72" x="304.900391"/>
     <use xlink:href="#DejaVuSans-65" x="343.763672"/>
     <use xlink:href="#DejaVuSans-61" x="405.287109"/>
    </g>
   </g>
  </g>
 </g>
 <defs>
  <clipPath id="pa33548b56b">
   <rect x="167.718898" y="69.12" width="254.962204" height="443.52"/>
  </clipPath>
 </defs>
</svg>
